<svg width="602" height="317" viewBox="0 0 602 317" fill="none" xmlns="http://www.w3.org/2000/svg">
<path d="M601 1H11.2608H1V316H203.226H412.129C412.129 316 394.959 222 448.377 165C501.795 108 601 126 601 126V1Z" fill="#111010" stroke="#111010"/>
<path d="M593.134 105.193C593.134 105.646 593.055 106.049 592.898 106.403C592.738 106.757 592.503 107.037 592.192 107.243C591.878 107.446 591.487 107.548 591.02 107.548C590.626 107.548 590.295 107.475 590.027 107.331C589.759 107.186 589.544 106.989 589.381 106.74C589.218 106.49 589.094 106.207 589.011 105.89C588.928 105.57 588.87 105.235 588.836 104.884C588.793 104.471 588.753 104.139 588.716 103.887C588.676 103.634 588.617 103.451 588.54 103.337C588.464 103.223 588.35 103.167 588.199 103.167H588.171C587.879 103.167 587.653 103.259 587.493 103.444C587.333 103.625 587.252 103.884 587.252 104.219C587.252 104.573 587.331 104.855 587.488 105.064C587.642 105.273 587.836 105.412 588.07 105.479L587.922 107.298C587.491 107.206 587.119 107.024 586.805 106.754C586.488 106.483 586.245 106.133 586.075 105.706C585.903 105.275 585.817 104.776 585.817 104.21C585.817 103.816 585.863 103.439 585.955 103.079C586.048 102.716 586.191 102.394 586.385 102.114C586.578 101.831 586.828 101.608 587.132 101.445C587.434 101.281 587.796 101.2 588.217 101.2H593V103.065H592.017V103.12C592.238 103.234 592.434 103.387 592.603 103.577C592.769 103.768 592.9 103.998 592.995 104.265C593.088 104.533 593.134 104.842 593.134 105.193ZM591.777 104.63C591.777 104.341 591.72 104.085 591.606 103.864C591.489 103.642 591.332 103.468 591.135 103.342C590.938 103.216 590.715 103.153 590.466 103.153H589.713C589.753 103.214 589.79 103.299 589.824 103.407C589.855 103.511 589.884 103.63 589.912 103.762C589.936 103.894 589.959 104.027 589.981 104.159C589.999 104.291 590.016 104.411 590.032 104.519C590.065 104.75 590.119 104.952 590.193 105.124C590.267 105.296 590.367 105.43 590.493 105.526C590.616 105.621 590.77 105.669 590.955 105.669C591.223 105.669 591.427 105.572 591.569 105.378C591.707 105.181 591.777 104.932 591.777 104.63ZM593.134 97.6522C593.134 98.1046 593.055 98.5078 592.898 98.8617C592.738 99.2156 592.503 99.4957 592.192 99.7019C591.878 99.905 591.487 100.007 591.02 100.007C590.626 100.007 590.295 99.9342 590.027 99.7896C589.759 99.6449 589.544 99.448 589.381 99.1987C589.218 98.9494 589.094 98.6663 589.011 98.3493C588.928 98.0292 588.87 97.6937 588.836 97.3429C588.793 96.9305 588.753 96.5981 588.716 96.3457C588.676 96.0933 588.617 95.9102 588.54 95.7963C588.464 95.6825 588.35 95.6255 588.199 95.6255H588.171C587.879 95.6255 587.653 95.7179 587.493 95.9025C587.333 96.0841 587.252 96.3426 587.252 96.6781C587.252 97.032 587.331 97.3136 587.488 97.5229C587.642 97.7322 587.836 97.8707 588.07 97.9384L587.922 99.7573C587.491 99.665 587.119 99.4834 586.805 99.2125C586.488 98.9417 586.245 98.5924 586.075 98.1646C585.903 97.7337 585.817 97.2351 585.817 96.6689C585.817 96.2749 585.863 95.8979 585.955 95.5378C586.048 95.1747 586.191 94.853 586.385 94.573C586.578 94.2898 586.828 94.0667 587.132 93.9036C587.434 93.7405 587.796 93.6589 588.217 93.6589H593V95.524H592.017V95.5794C592.238 95.6932 592.434 95.8456 592.603 96.0364C592.769 96.2272 592.9 96.4565 592.995 96.7243C593.088 96.992 593.134 97.3013 593.134 97.6522ZM591.777 97.089C591.777 96.7997 591.72 96.5442 591.606 96.3226C591.489 96.101 591.332 95.9271 591.135 95.801C590.938 95.6748 590.715 95.6117 590.466 95.6117H589.713C589.753 95.6732 589.79 95.7579 589.824 95.8656C589.855 95.9702 589.884 96.0887 589.912 96.2211C589.936 96.3534 589.959 96.4857 589.981 96.6181C589.999 96.7504 590.016 96.8704 590.032 96.9782C590.065 97.209 590.119 97.4106 590.193 97.5829C590.267 97.7553 590.367 97.8891 590.493 97.9846C590.616 98.08 590.77 98.1277 590.955 98.1277C591.223 98.1277 591.427 98.0307 591.569 97.8368C591.707 97.6399 591.777 97.3906 591.777 97.089ZM593.115 89.5202C593.115 90.0588 592.977 90.5466 592.7 90.9837C592.42 91.4176 592.009 91.7623 591.467 92.0178C590.923 92.2701 590.255 92.3963 589.464 92.3963C588.651 92.3963 587.976 92.2655 587.437 92.0039C586.895 91.7423 586.491 91.3945 586.223 90.9606C585.952 90.5236 585.817 90.045 585.817 89.5249C585.817 89.1278 585.884 88.797 586.02 88.5323C586.152 88.2646 586.318 88.0491 586.518 87.886C586.715 87.7198 586.909 87.5936 587.1 87.5075V87.4474H583.545V85.4854H593V87.4244H591.864V87.5075C592.061 87.5998 592.257 87.7306 592.451 87.8999C592.641 88.0661 592.8 88.283 592.926 88.5508C593.052 88.8155 593.115 89.1386 593.115 89.5202ZM591.55 88.897C591.55 88.58 591.464 88.3123 591.292 88.0938C591.116 87.8722 590.872 87.7029 590.558 87.5859C590.244 87.4659 589.876 87.4059 589.455 87.4059C589.033 87.4059 588.667 87.4644 588.356 87.5813C588.045 87.6983 587.805 87.8675 587.636 88.0891C587.466 88.3107 587.382 88.58 587.382 88.897C587.382 89.2202 587.469 89.4925 587.645 89.7141C587.82 89.9357 588.063 90.1035 588.374 90.2173C588.685 90.3312 589.045 90.3881 589.455 90.3881C589.867 90.3881 590.232 90.3312 590.549 90.2173C590.863 90.1004 591.109 89.9326 591.287 89.7141C591.463 89.4925 591.55 89.2202 591.55 88.897ZM593.138 80.637C593.138 81.3664 592.991 81.9942 592.695 82.5205C592.397 83.0437 591.975 83.4469 591.43 83.73C590.883 84.0132 590.235 84.1547 589.487 84.1547C588.757 84.1547 588.117 84.0132 587.566 83.73C587.016 83.4469 586.586 83.0483 586.278 82.5344C585.971 82.0173 585.817 81.411 585.817 80.7155C585.817 80.2477 585.892 79.8122 586.043 79.409C586.191 79.0028 586.414 78.6488 586.712 78.3472C587.011 78.0425 587.386 77.8055 587.839 77.6363C588.288 77.467 588.814 77.3824 589.418 77.3824H589.958V83.3699H588.739V79.2336C588.456 79.2336 588.205 79.2951 587.987 79.4182C587.768 79.5413 587.597 79.7122 587.474 79.9307C587.348 80.1461 587.285 80.3969 587.285 80.6831C587.285 80.9817 587.354 81.2464 587.493 81.4772C587.628 81.7049 587.811 81.8834 588.042 82.0127C588.27 82.142 588.524 82.2081 588.804 82.2112H589.962C590.313 82.2112 590.616 82.1466 590.872 82.0173C591.127 81.885 591.324 81.6988 591.463 81.4587C591.601 81.2187 591.67 80.934 591.67 80.6047C591.67 80.3862 591.64 80.1861 591.578 80.0045C591.517 79.8229 591.424 79.6675 591.301 79.5383C591.178 79.409 591.027 79.3105 590.849 79.2428L590.969 77.4239C591.406 77.5162 591.787 77.7055 592.114 77.9917C592.437 78.2749 592.689 78.6411 592.871 79.0905C593.049 79.5367 593.138 80.0522 593.138 80.637ZM587.931 70.1991L588.042 71.9996C587.888 72.0303 587.75 72.0965 587.626 72.1981C587.5 72.2996 587.4 72.4335 587.326 72.5997C587.249 72.7628 587.211 72.9582 587.211 73.186C587.211 73.4907 587.276 73.7477 587.405 73.9569C587.531 74.1662 587.7 74.2709 587.913 74.2709C588.082 74.2709 588.225 74.2032 588.342 74.0677C588.459 73.9323 588.553 73.7 588.624 73.3706L588.882 72.0873C589.024 71.3979 589.251 70.8839 589.565 70.5454C589.879 70.2068 590.292 70.0376 590.803 70.0376C591.267 70.0376 591.675 70.1745 592.026 70.4484C592.377 70.7193 592.651 71.0916 592.848 71.5656C593.042 72.0365 593.138 72.5797 593.138 73.1952C593.138 74.1339 592.943 74.8818 592.552 75.4388C592.158 75.9928 591.623 76.3175 590.946 76.4129L590.844 74.4786C591.13 74.4201 591.349 74.2786 591.5 74.0539C591.647 73.8292 591.721 73.5415 591.721 73.1906C591.721 72.8459 591.655 72.5689 591.523 72.3596C591.387 72.1473 591.213 72.0396 591.001 72.0365C590.823 72.0396 590.676 72.115 590.562 72.2627C590.446 72.4104 590.356 72.6382 590.295 72.9459L590.05 74.1739C589.912 74.8664 589.672 75.3819 589.33 75.7204C588.988 76.0559 588.553 76.2236 588.023 76.2236C587.568 76.2236 587.176 76.1005 586.846 75.8543C586.517 75.605 586.263 75.2557 586.085 74.8064C585.906 74.354 585.817 73.8246 585.817 73.2183C585.817 72.3227 586.006 71.6179 586.385 71.104C586.763 70.5869 587.279 70.2853 587.931 70.1991ZM593 68.7992H585.909V66.8326H593V68.7992ZM584.995 67.8113C584.995 68.1036 584.898 68.3545 584.704 68.5637C584.507 68.7699 584.272 68.873 583.998 68.873C583.727 68.873 583.495 68.7699 583.301 68.5637C583.104 68.3545 583.005 68.1036 583.005 67.8113C583.005 67.5189 583.104 67.2696 583.301 67.0634C583.495 66.8541 583.727 66.7495 583.998 66.7495C584.272 66.7495 584.507 66.8541 584.704 67.0634C584.898 67.2696 584.995 67.5189 584.995 67.8113ZM588.901 63.2906H593V65.2572H585.909V63.3829H587.16V63.2998C586.748 63.1428 586.422 62.8797 586.181 62.5104C585.938 62.1411 585.817 61.6933 585.817 61.167C585.817 60.6746 585.924 60.2452 586.14 59.879C586.355 59.5128 586.663 59.2281 587.063 59.0249C587.46 58.8218 587.934 58.7203 588.485 58.7203H593V60.6869H588.836C588.402 60.6838 588.063 60.7946 587.82 61.0193C587.574 61.2439 587.451 61.5532 587.451 61.9472C587.451 62.2119 587.508 62.4458 587.622 62.6489C587.736 62.8489 587.902 63.0059 588.12 63.1198C588.336 63.2306 588.596 63.2875 588.901 63.2906ZM593.134 55.1483C593.134 55.6007 593.055 56.0038 592.898 56.3578C592.738 56.7117 592.503 56.9918 592.192 57.198C591.878 57.4011 591.487 57.5027 591.02 57.5027C590.626 57.5027 590.295 57.4303 590.027 57.2857C589.759 57.141 589.544 56.9441 589.381 56.6948C589.218 56.4455 589.094 56.1623 589.011 55.8453C588.928 55.5253 588.87 55.1898 588.836 54.839C588.793 54.4266 588.753 54.0942 588.716 53.8418C588.676 53.5894 588.617 53.4063 588.54 53.2924C588.464 53.1786 588.35 53.1216 588.199 53.1216H588.171C587.879 53.1216 587.653 53.214 587.493 53.3986C587.333 53.5802 587.252 53.8387 587.252 54.1742C587.252 54.5281 587.331 54.8097 587.488 55.019C587.642 55.2283 587.836 55.3668 588.07 55.4345L587.922 57.2534C587.491 57.161 587.119 56.9795 586.805 56.7086C586.488 56.4378 586.245 56.0885 586.075 55.6607C585.903 55.2298 585.817 54.7312 585.817 54.165C585.817 53.771 585.863 53.394 585.955 53.0339C586.048 52.6708 586.191 52.3491 586.385 52.0691C586.578 51.7859 586.828 51.5628 587.132 51.3997C587.434 51.2366 587.796 51.155 588.217 51.155H593V53.0201H592.017V53.0755C592.238 53.1893 592.434 53.3417 592.603 53.5325C592.769 53.7233 592.9 53.9526 592.995 54.2203C593.088 54.4881 593.134 54.7974 593.134 55.1483ZM591.777 54.585C591.777 54.2958 591.72 54.0403 591.606 53.8187C591.489 53.5971 591.332 53.4232 591.135 53.2971C590.938 53.1709 590.715 53.1078 590.466 53.1078H589.713C589.753 53.1693 589.79 53.254 589.824 53.3617C589.855 53.4663 589.884 53.5848 589.912 53.7172C589.936 53.8495 589.959 53.9818 589.981 54.1142C589.999 54.2465 590.016 54.3665 590.032 54.4743C590.065 54.7051 590.119 54.9067 590.193 55.079C590.267 55.2514 590.367 55.3852 590.493 55.4806C590.616 55.5761 590.77 55.6238 590.955 55.6238C591.223 55.6238 591.427 55.5268 591.569 55.3329C591.707 55.1359 591.777 54.8867 591.777 54.585ZM593.12 48.4798C593.12 48.7844 593.012 49.046 592.797 49.2646C592.578 49.48 592.317 49.5877 592.012 49.5877C591.71 49.5877 591.452 49.48 591.237 49.2646C591.021 49.046 590.913 48.7844 590.913 48.4798C590.913 48.1843 591.021 47.9258 591.237 47.7042C591.452 47.4826 591.71 47.3718 592.012 47.3718C592.215 47.3718 592.401 47.4241 592.571 47.5288C592.737 47.6303 592.871 47.7642 592.972 47.9304C593.071 48.0966 593.12 48.2797 593.12 48.4798ZM593.138 42.5534C593.138 43.2797 592.985 43.9044 592.677 44.4276C592.366 44.9478 591.935 45.3479 591.384 45.6279C590.833 45.9049 590.199 46.0434 589.482 46.0434C588.756 46.0434 588.119 45.9034 587.571 45.6233C587.02 45.3402 586.591 44.9385 586.283 44.4184C585.972 43.8983 585.817 43.2797 585.817 42.5626C585.817 41.944 585.929 41.4023 586.154 40.9376C586.378 40.4729 586.694 40.1051 587.1 39.8343C587.506 39.5634 587.983 39.4142 588.531 39.3865V41.2423C588.177 41.2946 587.893 41.4331 587.677 41.6578C587.459 41.8793 587.349 42.1702 587.349 42.5303C587.349 42.835 587.433 43.1012 587.599 43.3289C587.762 43.5536 588 43.729 588.314 43.8552C588.628 43.9814 589.008 44.0445 589.455 44.0445C589.907 44.0445 590.292 43.9829 590.609 43.8598C590.926 43.7336 591.167 43.5567 591.333 43.3289C591.5 43.1012 591.583 42.835 591.583 42.5303C591.583 42.3056 591.537 42.104 591.444 41.9255C591.352 41.7439 591.218 41.5947 591.043 41.4777C590.864 41.3577 590.65 41.2792 590.401 41.2423V39.3865C590.943 39.4172 591.42 39.565 591.832 39.8296C592.241 40.0912 592.561 40.4529 592.792 40.9145C593.023 41.3762 593.138 41.9224 593.138 42.5534ZM593.138 34.9235C593.138 35.6406 592.986 36.2607 592.681 36.7839C592.374 37.304 591.946 37.7057 591.398 37.9888C590.847 38.272 590.209 38.4135 589.482 38.4135C588.75 38.4135 588.11 38.272 587.562 37.9888C587.011 37.7057 586.583 37.304 586.278 36.7839C585.971 36.2607 585.817 35.6406 585.817 34.9235C585.817 34.2064 585.971 33.5878 586.278 33.0676C586.583 32.5444 587.011 32.1413 587.562 31.8581C588.11 31.575 588.75 31.4334 589.482 31.4334C590.209 31.4334 590.847 31.575 591.398 31.8581C591.946 32.1413 592.374 32.5444 592.681 33.0676C592.986 33.5878 593.138 34.2064 593.138 34.9235ZM591.615 34.9142C591.615 34.588 591.523 34.3156 591.338 34.0971C591.15 33.8786 590.895 33.714 590.572 33.6032C590.249 33.4893 589.881 33.4324 589.468 33.4324C589.056 33.4324 588.688 33.4893 588.365 33.6032C588.042 33.714 587.786 33.8786 587.599 34.0971C587.411 34.3156 587.317 34.588 587.317 34.9142C587.317 35.2435 587.411 35.5205 587.599 35.7452C587.786 35.9668 588.042 36.1345 588.365 36.2484C588.688 36.3592 589.056 36.4146 589.468 36.4146C589.881 36.4146 590.249 36.3592 590.572 36.2484C590.895 36.1345 591.15 35.9668 591.338 35.7452C591.523 35.5205 591.615 35.2435 591.615 34.9142ZM593 30.1547H585.909V28.2804H587.16V28.1973C586.745 28.0495 586.417 27.8033 586.177 27.4586C585.937 27.1139 585.817 26.7015 585.817 26.2214C585.817 25.7351 585.938 25.3212 586.181 24.9796C586.422 24.638 586.748 24.4102 587.16 24.2963V24.2225C586.754 24.0778 586.429 23.8162 586.186 23.4377C585.94 23.056 585.817 22.6052 585.817 22.085C585.817 21.4234 586.028 20.8863 586.449 20.4739C586.868 20.0584 587.462 19.8507 588.231 19.8507H593V21.8127H588.619C588.225 21.8127 587.93 21.9173 587.733 22.1266C587.536 22.3359 587.437 22.5975 587.437 22.9114C587.437 23.2684 587.551 23.5469 587.779 23.747C588.003 23.947 588.3 24.0471 588.67 24.0471H593V25.9537H588.577C588.23 25.9537 587.953 26.0537 587.746 26.2537C587.54 26.4507 587.437 26.7108 587.437 27.0339C587.437 27.2524 587.493 27.4494 587.603 27.6248C587.711 27.7972 587.863 27.9341 588.06 28.0357C588.254 28.1373 588.482 28.188 588.744 28.188H593V30.1547Z" fill="#111010"/>
<path d="M593.134 105.193C593.134 105.646 593.055 106.049 592.898 106.403C592.738 106.757 592.503 107.037 592.192 107.243C591.878 107.446 591.487 107.548 591.02 107.548C590.626 107.548 590.295 107.475 590.027 107.331C589.759 107.186 589.544 106.989 589.381 106.74C589.218 106.49 589.094 106.207 589.011 105.89C588.928 105.57 588.87 105.235 588.836 104.884C588.793 104.471 588.753 104.139 588.716 103.887C588.676 103.634 588.617 103.451 588.54 103.337C588.464 103.223 588.35 103.167 588.199 103.167H588.171C587.879 103.167 587.653 103.259 587.493 103.444C587.333 103.625 587.252 103.884 587.252 104.219C587.252 104.573 587.331 104.855 587.488 105.064C587.642 105.273 587.836 105.412 588.07 105.479L587.922 107.298C587.491 107.206 587.119 107.024 586.805 106.754C586.488 106.483 586.245 106.133 586.075 105.706C585.903 105.275 585.817 104.776 585.817 104.21C585.817 103.816 585.863 103.439 585.955 103.079C586.048 102.716 586.191 102.394 586.385 102.114C586.578 101.831 586.828 101.608 587.132 101.445C587.434 101.281 587.796 101.2 588.217 101.2H593V103.065H592.017V103.12C592.238 103.234 592.434 103.387 592.603 103.577C592.769 103.768 592.9 103.998 592.995 104.265C593.088 104.533 593.134 104.842 593.134 105.193ZM591.777 104.63C591.777 104.341 591.72 104.085 591.606 103.864C591.489 103.642 591.332 103.468 591.135 103.342C590.938 103.216 590.715 103.153 590.466 103.153H589.713C589.753 103.214 589.79 103.299 589.824 103.407C589.855 103.511 589.884 103.63 589.912 103.762C589.936 103.894 589.959 104.027 589.981 104.159C589.999 104.291 590.016 104.411 590.032 104.519C590.065 104.75 590.119 104.952 590.193 105.124C590.267 105.296 590.367 105.43 590.493 105.526C590.616 105.621 590.77 105.669 590.955 105.669C591.223 105.669 591.427 105.572 591.569 105.378C591.707 105.181 591.777 104.932 591.777 104.63ZM593.134 97.6522C593.134 98.1046 593.055 98.5078 592.898 98.8617C592.738 99.2156 592.503 99.4957 592.192 99.7019C591.878 99.905 591.487 100.007 591.02 100.007C590.626 100.007 590.295 99.9342 590.027 99.7896C589.759 99.6449 589.544 99.448 589.381 99.1987C589.218 98.9494 589.094 98.6663 589.011 98.3493C588.928 98.0292 588.87 97.6937 588.836 97.3429C588.793 96.9305 588.753 96.5981 588.716 96.3457C588.676 96.0933 588.617 95.9102 588.54 95.7963C588.464 95.6825 588.35 95.6255 588.199 95.6255H588.171C587.879 95.6255 587.653 95.7179 587.493 95.9025C587.333 96.0841 587.252 96.3426 587.252 96.6781C587.252 97.032 587.331 97.3136 587.488 97.5229C587.642 97.7322 587.836 97.8707 588.07 97.9384L587.922 99.7573C587.491 99.665 587.119 99.4834 586.805 99.2125C586.488 98.9417 586.245 98.5924 586.075 98.1646C585.903 97.7337 585.817 97.2351 585.817 96.6689C585.817 96.2749 585.863 95.8979 585.955 95.5378C586.048 95.1747 586.191 94.853 586.385 94.573C586.578 94.2898 586.828 94.0667 587.132 93.9036C587.434 93.7405 587.796 93.6589 588.217 93.6589H593V95.524H592.017V95.5794C592.238 95.6932 592.434 95.8456 592.603 96.0364C592.769 96.2272 592.9 96.4565 592.995 96.7243C593.088 96.992 593.134 97.3013 593.134 97.6522ZM591.777 97.089C591.777 96.7997 591.72 96.5442 591.606 96.3226C591.489 96.101 591.332 95.9271 591.135 95.801C590.938 95.6748 590.715 95.6117 590.466 95.6117H589.713C589.753 95.6732 589.79 95.7579 589.824 95.8656C589.855 95.9702 589.884 96.0887 589.912 96.2211C589.936 96.3534 589.959 96.4857 589.981 96.6181C589.999 96.7504 590.016 96.8704 590.032 96.9782C590.065 97.209 590.119 97.4106 590.193 97.5829C590.267 97.7553 590.367 97.8891 590.493 97.9846C590.616 98.08 590.77 98.1277 590.955 98.1277C591.223 98.1277 591.427 98.0307 591.569 97.8368C591.707 97.6399 591.777 97.3906 591.777 97.089ZM593.115 89.5202C593.115 90.0588 592.977 90.5466 592.7 90.9837C592.42 91.4176 592.009 91.7623 591.467 92.0178C590.923 92.2701 590.255 92.3963 589.464 92.3963C588.651 92.3963 587.976 92.2655 587.437 92.0039C586.895 91.7423 586.491 91.3945 586.223 90.9606C585.952 90.5236 585.817 90.045 585.817 89.5249C585.817 89.1278 585.884 88.797 586.02 88.5323C586.152 88.2646 586.318 88.0491 586.518 87.886C586.715 87.7198 586.909 87.5936 587.1 87.5075V87.4474H583.545V85.4854H593V87.4244H591.864V87.5075C592.061 87.5998 592.257 87.7306 592.451 87.8999C592.641 88.0661 592.8 88.283 592.926 88.5508C593.052 88.8155 593.115 89.1386 593.115 89.5202ZM591.55 88.897C591.55 88.58 591.464 88.3123 591.292 88.0938C591.116 87.8722 590.872 87.7029 590.558 87.5859C590.244 87.4659 589.876 87.4059 589.455 87.4059C589.033 87.4059 588.667 87.4644 588.356 87.5813C588.045 87.6983 587.805 87.8675 587.636 88.0891C587.466 88.3107 587.382 88.58 587.382 88.897C587.382 89.2202 587.469 89.4925 587.645 89.7141C587.82 89.9357 588.063 90.1035 588.374 90.2173C588.685 90.3312 589.045 90.3881 589.455 90.3881C589.867 90.3881 590.232 90.3312 590.549 90.2173C590.863 90.1004 591.109 89.9326 591.287 89.7141C591.463 89.4925 591.55 89.2202 591.55 88.897ZM593.138 80.637C593.138 81.3664 592.991 81.9942 592.695 82.5205C592.397 83.0437 591.975 83.4469 591.43 83.73C590.883 84.0132 590.235 84.1547 589.487 84.1547C588.757 84.1547 588.117 84.0132 587.566 83.73C587.016 83.4469 586.586 83.0483 586.278 82.5344C585.971 82.0173 585.817 81.411 585.817 80.7155C585.817 80.2477 585.892 79.8122 586.043 79.409C586.191 79.0028 586.414 78.6488 586.712 78.3472C587.011 78.0425 587.386 77.8055 587.839 77.6363C588.288 77.467 588.814 77.3824 589.418 77.3824H589.958V83.3699H588.739V79.2336C588.456 79.2336 588.205 79.2951 587.987 79.4182C587.768 79.5413 587.597 79.7122 587.474 79.9307C587.348 80.1461 587.285 80.3969 587.285 80.6831C587.285 80.9817 587.354 81.2464 587.493 81.4772C587.628 81.7049 587.811 81.8834 588.042 82.0127C588.27 82.142 588.524 82.2081 588.804 82.2112H589.962C590.313 82.2112 590.616 82.1466 590.872 82.0173C591.127 81.885 591.324 81.6988 591.463 81.4587C591.601 81.2187 591.67 80.934 591.67 80.6047C591.67 80.3862 591.64 80.1861 591.578 80.0045C591.517 79.8229 591.424 79.6675 591.301 79.5383C591.178 79.409 591.027 79.3105 590.849 79.2428L590.969 77.4239C591.406 77.5162 591.787 77.7055 592.114 77.9917C592.437 78.2749 592.689 78.6411 592.871 79.0905C593.049 79.5367 593.138 80.0522 593.138 80.637ZM587.931 70.1991L588.042 71.9996C587.888 72.0303 587.75 72.0965 587.626 72.1981C587.5 72.2996 587.4 72.4335 587.326 72.5997C587.249 72.7628 587.211 72.9582 587.211 73.186C587.211 73.4907 587.276 73.7477 587.405 73.9569C587.531 74.1662 587.7 74.2709 587.913 74.2709C588.082 74.2709 588.225 74.2032 588.342 74.0677C588.459 73.9323 588.553 73.7 588.624 73.3706L588.882 72.0873C589.024 71.3979 589.251 70.8839 589.565 70.5454C589.879 70.2068 590.292 70.0376 590.803 70.0376C591.267 70.0376 591.675 70.1745 592.026 70.4484C592.377 70.7193 592.651 71.0916 592.848 71.5656C593.042 72.0365 593.138 72.5797 593.138 73.1952C593.138 74.1339 592.943 74.8818 592.552 75.4388C592.158 75.9928 591.623 76.3175 590.946 76.4129L590.844 74.4786C591.13 74.4201 591.349 74.2786 591.5 74.0539C591.647 73.8292 591.721 73.5415 591.721 73.1906C591.721 72.8459 591.655 72.5689 591.523 72.3596C591.387 72.1473 591.213 72.0396 591.001 72.0365C590.823 72.0396 590.676 72.115 590.562 72.2627C590.446 72.4104 590.356 72.6382 590.295 72.9459L590.05 74.1739C589.912 74.8664 589.672 75.3819 589.33 75.7204C588.988 76.0559 588.553 76.2236 588.023 76.2236C587.568 76.2236 587.176 76.1005 586.846 75.8543C586.517 75.605 586.263 75.2557 586.085 74.8064C585.906 74.354 585.817 73.8246 585.817 73.2183C585.817 72.3227 586.006 71.6179 586.385 71.104C586.763 70.5869 587.279 70.2853 587.931 70.1991ZM593 68.7992H585.909V66.8326H593V68.7992ZM584.995 67.8113C584.995 68.1036 584.898 68.3545 584.704 68.5637C584.507 68.7699 584.272 68.873 583.998 68.873C583.727 68.873 583.495 68.7699 583.301 68.5637C583.104 68.3545 583.005 68.1036 583.005 67.8113C583.005 67.5189 583.104 67.2696 583.301 67.0634C583.495 66.8541 583.727 66.7495 583.998 66.7495C584.272 66.7495 584.507 66.8541 584.704 67.0634C584.898 67.2696 584.995 67.5189 584.995 67.8113ZM588.901 63.2906H593V65.2572H585.909V63.3829H587.16V63.2998C586.748 63.1428 586.422 62.8797 586.181 62.5104C585.938 62.1411 585.817 61.6933 585.817 61.167C585.817 60.6746 585.924 60.2452 586.14 59.879C586.355 59.5128 586.663 59.2281 587.063 59.0249C587.46 58.8218 587.934 58.7203 588.485 58.7203H593V60.6869H588.836C588.402 60.6838 588.063 60.7946 587.82 61.0193C587.574 61.2439 587.451 61.5532 587.451 61.9472C587.451 62.2119 587.508 62.4458 587.622 62.6489C587.736 62.8489 587.902 63.0059 588.12 63.1198C588.336 63.2306 588.596 63.2875 588.901 63.2906ZM593.134 55.1483C593.134 55.6007 593.055 56.0038 592.898 56.3578C592.738 56.7117 592.503 56.9918 592.192 57.198C591.878 57.4011 591.487 57.5027 591.02 57.5027C590.626 57.5027 590.295 57.4303 590.027 57.2857C589.759 57.141 589.544 56.9441 589.381 56.6948C589.218 56.4455 589.094 56.1623 589.011 55.8453C588.928 55.5253 588.87 55.1898 588.836 54.839C588.793 54.4266 588.753 54.0942 588.716 53.8418C588.676 53.5894 588.617 53.4063 588.54 53.2924C588.464 53.1786 588.35 53.1216 588.199 53.1216H588.171C587.879 53.1216 587.653 53.214 587.493 53.3986C587.333 53.5802 587.252 53.8387 587.252 54.1742C587.252 54.5281 587.331 54.8097 587.488 55.019C587.642 55.2283 587.836 55.3668 588.07 55.4345L587.922 57.2534C587.491 57.161 587.119 56.9795 586.805 56.7086C586.488 56.4378 586.245 56.0885 586.075 55.6607C585.903 55.2298 585.817 54.7312 585.817 54.165C585.817 53.771 585.863 53.394 585.955 53.0339C586.048 52.6708 586.191 52.3491 586.385 52.0691C586.578 51.7859 586.828 51.5628 587.132 51.3997C587.434 51.2366 587.796 51.155 588.217 51.155H593V53.0201H592.017V53.0755C592.238 53.1893 592.434 53.3417 592.603 53.5325C592.769 53.7233 592.9 53.9526 592.995 54.2203C593.088 54.4881 593.134 54.7974 593.134 55.1483ZM591.777 54.585C591.777 54.2958 591.72 54.0403 591.606 53.8187C591.489 53.5971 591.332 53.4232 591.135 53.2971C590.938 53.1709 590.715 53.1078 590.466 53.1078H589.713C589.753 53.1693 589.79 53.254 589.824 53.3617C589.855 53.4663 589.884 53.5848 589.912 53.7172C589.936 53.8495 589.959 53.9818 589.981 54.1142C589.999 54.2465 590.016 54.3665 590.032 54.4743C590.065 54.7051 590.119 54.9067 590.193 55.079C590.267 55.2514 590.367 55.3852 590.493 55.4806C590.616 55.5761 590.77 55.6238 590.955 55.6238C591.223 55.6238 591.427 55.5268 591.569 55.3329C591.707 55.1359 591.777 54.8867 591.777 54.585ZM593.12 48.4798C593.12 48.7844 593.012 49.046 592.797 49.2646C592.578 49.48 592.317 49.5877 592.012 49.5877C591.71 49.5877 591.452 49.48 591.237 49.2646C591.021 49.046 590.913 48.7844 590.913 48.4798C590.913 48.1843 591.021 47.9258 591.237 47.7042C591.452 47.4826 591.71 47.3718 592.012 47.3718C592.215 47.3718 592.401 47.4241 592.571 47.5288C592.737 47.6303 592.871 47.7642 592.972 47.9304C593.071 48.0966 593.12 48.2797 593.12 48.4798ZM593.138 42.5534C593.138 43.2797 592.985 43.9044 592.677 44.4276C592.366 44.9478 591.935 45.3479 591.384 45.6279C590.833 45.9049 590.199 46.0434 589.482 46.0434C588.756 46.0434 588.119 45.9034 587.571 45.6233C587.02 45.3402 586.591 44.9385 586.283 44.4184C585.972 43.8983 585.817 43.2797 585.817 42.5626C585.817 41.944 585.929 41.4023 586.154 40.9376C586.378 40.4729 586.694 40.1051 587.1 39.8343C587.506 39.5634 587.983 39.4142 588.531 39.3865V41.2423C588.177 41.2946 587.893 41.4331 587.677 41.6578C587.459 41.8793 587.349 42.1702 587.349 42.5303C587.349 42.835 587.433 43.1012 587.599 43.3289C587.762 43.5536 588 43.729 588.314 43.8552C588.628 43.9814 589.008 44.0445 589.455 44.0445C589.907 44.0445 590.292 43.9829 590.609 43.8598C590.926 43.7336 591.167 43.5567 591.333 43.3289C591.5 43.1012 591.583 42.835 591.583 42.5303C591.583 42.3056 591.537 42.104 591.444 41.9255C591.352 41.7439 591.218 41.5947 591.043 41.4777C590.864 41.3577 590.65 41.2792 590.401 41.2423V39.3865C590.943 39.4172 591.42 39.565 591.832 39.8296C592.241 40.0912 592.561 40.4529 592.792 40.9145C593.023 41.3762 593.138 41.9224 593.138 42.5534ZM593.138 34.9235C593.138 35.6406 592.986 36.2607 592.681 36.7839C592.374 37.304 591.946 37.7057 591.398 37.9888C590.847 38.272 590.209 38.4135 589.482 38.4135C588.75 38.4135 588.11 38.272 587.562 37.9888C587.011 37.7057 586.583 37.304 586.278 36.7839C585.971 36.2607 585.817 35.6406 585.817 34.9235C585.817 34.2064 585.971 33.5878 586.278 33.0676C586.583 32.5444 587.011 32.1413 587.562 31.8581C588.11 31.575 588.75 31.4334 589.482 31.4334C590.209 31.4334 590.847 31.575 591.398 31.8581C591.946 32.1413 592.374 32.5444 592.681 33.0676C592.986 33.5878 593.138 34.2064 593.138 34.9235ZM591.615 34.9142C591.615 34.588 591.523 34.3156 591.338 34.0971C591.15 33.8786 590.895 33.714 590.572 33.6032C590.249 33.4893 589.881 33.4324 589.468 33.4324C589.056 33.4324 588.688 33.4893 588.365 33.6032C588.042 33.714 587.786 33.8786 587.599 34.0971C587.411 34.3156 587.317 34.588 587.317 34.9142C587.317 35.2435 587.411 35.5205 587.599 35.7452C587.786 35.9668 588.042 36.1345 588.365 36.2484C588.688 36.3592 589.056 36.4146 589.468 36.4146C589.881 36.4146 590.249 36.3592 590.572 36.2484C590.895 36.1345 591.15 35.9668 591.338 35.7452C591.523 35.5205 591.615 35.2435 591.615 34.9142ZM593 30.1547H585.909V28.2804H587.16V28.1973C586.745 28.0495 586.417 27.8033 586.177 27.4586C585.937 27.1139 585.817 26.7015 585.817 26.2214C585.817 25.7351 585.938 25.3212 586.181 24.9796C586.422 24.638 586.748 24.4102 587.16 24.2963V24.2225C586.754 24.0778 586.429 23.8162 586.186 23.4377C585.94 23.056 585.817 22.6052 585.817 22.085C585.817 21.4234 586.028 20.8863 586.449 20.4739C586.868 20.0584 587.462 19.8507 588.231 19.8507H593V21.8127H588.619C588.225 21.8127 587.93 21.9173 587.733 22.1266C587.536 22.3359 587.437 22.5975 587.437 22.9114C587.437 23.2684 587.551 23.5469 587.779 23.747C588.003 23.947 588.3 24.0471 588.67 24.0471H593V25.9537H588.577C588.23 25.9537 587.953 26.0537 587.746 26.2537C587.54 26.4507 587.437 26.7108 587.437 27.0339C587.437 27.2524 587.493 27.4494 587.603 27.6248C587.711 27.7972 587.863 27.9341 588.06 28.0357C588.254 28.1373 588.482 28.188 588.744 28.188H593V30.1547Z" fill="#F5F5F5"/>
</svg>
