<svg width="602" height="317" viewBox="0 0 602 317" fill="none" xmlns="http://www.w3.org/2000/svg">
<path d="M601 1H11.2608H1V316H203.226H412.129C412.129 316 394.959 222 448.377 165C501.795 108 601 126 601 126V1Z" fill="#111010" stroke="#111010"/>
<path d="M593.134 105.193C593.134 105.646 593.055 106.049 592.898 106.403C592.738 106.757 592.503 107.037 592.192 107.243C591.878 107.446 591.487 107.548 591.02 107.548C590.626 107.548 590.295 107.475 590.027 107.331C589.759 107.186 589.544 106.989 589.381 106.74C589.218 106.49 589.094 106.207 589.011 105.89C588.928 105.57 588.87 105.235 588.836 104.884C588.793 104.471 588.753 104.139 588.716 103.887C588.676 103.634 588.617 103.451 588.54 103.337C588.464 103.223 588.35 103.167 588.199 103.167H588.171C587.879 103.167 587.653 103.259 587.493 103.444C587.333 103.625 587.252 103.884 587.252 104.219C587.252 104.573 587.331 104.855 587.488 105.064C587.642 105.273 587.836 105.412 588.07 105.479L587.922 107.298C587.491 107.206 587.119 107.024 586.805 106.754C586.488 106.483 586.245 106.133 586.075 105.706C585.903 105.275 585.817 104.776 585.817 104.21C585.817 103.816 585.863 103.439 585.955 103.079C586.048 102.716 586.191 102.394 586.385 102.114C586.578 101.831 586.828 101.608 587.132 101.445C587.434 101.281 587.796 101.2 588.217 101.2H593V103.065H592.017V103.12C592.238 103.234 592.434 103.387 592.603 103.577C592.769 103.768 592.9 103.998 592.995 104.265C593.088 104.533 593.134 104.842 593.134 105.193ZM591.777 104.63C591.777 104.341 591.72 104.085 591.606 103.864C591.489 103.642 591.332 103.468 591.135 103.342C590.938 103.216 590.715 103.153 590.466 103.153H589.713C589.753 103.214 589.79 103.299 589.824 103.407C589.855 103.511 589.884 103.63 589.912 103.762C589.936 103.894 589.959 104.027 589.981 104.159C589.999 104.291 590.016 104.411 590.032 104.519C590.065 104.75 590.119 104.952 590.193 105.124C590.267 105.296 590.367 105.43 590.493 105.526C590.616 105.621 590.77 105.669 590.955 105.669C591.223 105.669 591.427 105.572 591.569 105.378C591.707 105.181 591.777 104.932 591.777 104.63ZM593.134 97.6522C593.134 98.1046 593.055 98.5078 592.898 98.8617C592.738 99.2156 592.503 99.4957 592.192 99.7019C591.878 99.905 591.487 100.007 591.02 100.007C590.626 100.007 590.295 99.9342 590.027 99.7896C589.759 99.6449 589.544 99.448 589.381 99.1987C589.218 98.9494 589.094 98.6663 589.011 98.3493C588.928 98.0292 588.87 97.6937 588.836 97.3429C588.793 96.9305 588.753 96.5981 588.716 96.3457C588.676 96.0933 588.617 95.9102 588.54 95.7963C588.464 95.6825 588.35 95.6255 588.199 95.6255H588.171C587.879 95.6255 587.653 95.7179 587.493 95.9025C587.333 96.0841 587.252 96.3426 587.252 96.6781C587.252 97.032 587.331 97.3136 587.488 97.5229C587.642 97.7322 587.836 97.8707 588.07 97.9384L587.922 99.7573C587.491 99.665 587.119 99.4834 586.805 99.2125C586.488 98.9417 586.245 98.5924 586.075 98.1646C585.903 97.7337 585.817 97.2351 585.817 96.6689C585.817 96.2749 585.863 95.8979 585.955 95.5378C586.048 95.1747 586.191 94.853 586.385 94.573C586.578 94.2898 586.828 94.0667 587.132 93.9036C587.434 93.7405 587.796 93.6589 588.217 93.6589H593V95.524H592.017V95.5794C592.238 95.6932 592.434 95.8456 592.603 96.0364C592.769 96.2272 592.9 96.4565 592.995 96.7243C593.088 96.992 593.134 97.3013 593.134 97.6522ZM591.777 97.089C591.777 96.7997 591.72 96.5442 591.606 96.3226C591.489 96.101 591.332 95.9271 591.135 95.801C590.938 95.6748 590.715 95.6117 590.466 95.6117H589.713C589.753 95.6732 589.79 95.7579 589.824 95.8656C589.855 95.9702 589.884 96.0887 589.912 96.2211C589.936 96.3534 589.959 96.4857 589.981 96.6181C589.999 96.7504 590.016 96.8704 590.032 96.9782C590.065 97.209 590.119 97.4106 590.193 97.5829C590.267 97.7553 590.367 97.8891 590.493 97.9846C590.616 98.08 590.77 98.1277 590.955 98.1277C591.223 98.1277 591.427 98.0307 591.569 97.8368C591.707 97.6399 591.777 97.3906 591.777 97.089ZM593.115 89.5202C593.115 90.0588 592.977 90.5466 592.7 90.9837C592.42 91.4176 592.009 91.7623 591.467 92.0178C590.923 92.2701 590.255 92.3963 589.464 92.3963C588.651 92.3963 587.976 92.2655 587.437 92.0039C586.895 91.7423 586.491 91.3945 586.223 90.9606C585.952 90.5236 585.817 90.045 585.817 89.5249C585.817 89.1278 585.884 88.797 586.02 88.5323C586.152 88.2646 586.318 88.0491 586.518 87.886C586.715 87.7198 586.909 87.5936 587.1 87.5075V87.4474H583.545V85.4854H593V87.4244H591.864V87.5075C592.061 87.5998 592.257 87.7306 592.451 87.8999C592.641 88.0661 592.8 88.283 592.926 88.5508C593.052 88.8155 593.115 89.1386 593.115 89.5202ZM591.55 88.897C591.55 88.58 591.464 88.3123 591.292 88.0938C591.116 87.8722 590.872 87.7029 590.558 87.5859C590.244 87.4659 589.876 87.4059 589.455 87.4059C589.033 87.4059 588.667 87.4644 588.356 87.5813C588.045 87.6983 587.805 87.8675 587.636 88.0891C587.466 88.3107 587.382 88.58 587.382 88.897C587.382 89.2202 587.469 89.4925 587.645 89.7141C587.82 89.9357 588.063 90.1035 588.374 90.2173C588.685 90.3312 589.045 90.3881 589.455 90.3881C589.867 90.3881 590.232 90.3312 590.549 90.2173C590.863 90.1004 591.109 89.9326 591.287 89.7141C591.463 89.4925 591.55 89.2202 591.55 88.897ZM593.138 80.637C593.138 81.3664 592.991 81.9942 592.695 82.5205C592.397 83.0437 591.975 83.4469 591.43 83.73C590.883 84.0132 590.235 84.1547 589.487 84.1547C588.757 84.1547 588.117 84.0132 587.566 83.73C587.016 83.4469 586.586 83.0483 586.278 82.5344C585.971 82.0173 585.817 81.411 585.817 80.7155C585.817 80.2477 585.892 79.8122 586.043 79.409C586.191 79.0028 586.414 78.6488 586.712 78.3472C587.011 78.0425 587.386 77.8055 587.839 77.6363C588.288 77.467 588.814 77.3824 589.418 77.3824H589.958V83.3699H588.739V79.2336C588.456 79.2336 588.205 79.2951 587.987 79.4182C587.768 79.5413 587.597 79.7122 587.474 79.9307C587.348 80.1461 587.285 80.3969 587.285 80.6831C587.285 80.9817 587.354 81.2464 587.493 81.4772C587.628 81.7049 587.811 81.8834 588.042 82.0127C588.27 82.142 588.524 82.2081 588.804 82.2112H589.962C590.313 82.2112 590.616 82.1466 590.872 82.0173C591.127 81.885 591.324 81.6988 591.463 81.4587C591.601 81.2187 591.67 80.934 591.67 80.6047C591.67 80.3862 591.64 80.1861 591.578 80.0045C591.517 79.8229 591.424 79.6675 591.301 79.5383C591.178 79.409 591.027 79.3105 590.849 79.2428L590.969 77.4239C591.406 77.5162 591.787 77.7055 592.114 77.9917C592.437 78.2749 592.689 78.6411 592.871 79.0905C593.049 79.5367 593.138 80.0522 593.138 80.637ZM593 76.0621H583.545V74.0954H587.1V74.0354C586.909 73.9492 586.715 73.8246 586.518 73.6615C586.318 73.4953 586.152 73.2799 586.02 73.0152C585.884 72.7474 585.817 72.415 585.817 72.018C585.817 71.501 585.952 71.0239 586.223 70.5869C586.491 70.1499 586.895 69.8006 587.437 69.539C587.976 69.2774 588.651 69.1466 589.464 69.1466C590.255 69.1466 590.923 69.2743 591.467 69.5297C592.009 69.7821 592.42 70.1268 592.7 70.5638C592.977 70.9978 593.115 71.484 593.115 72.0226C593.115 72.4043 593.052 72.729 592.926 72.9967C592.8 73.2614 592.641 73.4784 592.451 73.6476C592.257 73.8169 592.061 73.9462 591.864 74.0354V74.1231H593V76.0621ZM589.455 74.137C589.876 74.137 590.244 74.0785 590.558 73.9616C590.872 73.8446 591.116 73.6753 591.292 73.4537C591.464 73.2322 591.55 72.9629 591.55 72.6459C591.55 72.3258 591.463 72.055 591.287 71.8334C591.109 71.6118 590.863 71.444 590.549 71.3302C590.232 71.2132 589.867 71.1547 589.455 71.1547C589.045 71.1547 588.685 71.2117 588.374 71.3256C588.063 71.4394 587.82 71.6072 587.645 71.8287C587.469 72.0503 587.382 72.3227 587.382 72.6459C587.382 72.9659 587.466 73.2368 587.636 73.4584C587.805 73.6769 588.045 73.8446 588.356 73.9616C588.667 74.0785 589.033 74.137 589.455 74.137ZM593.138 64.6305C593.138 65.3476 592.986 65.9677 592.681 66.4909C592.374 67.0111 591.946 67.4127 591.398 67.6958C590.847 67.979 590.209 68.1206 589.482 68.1206C588.75 68.1206 588.11 67.979 587.562 67.6958C587.011 67.4127 586.583 67.0111 586.278 66.4909C585.971 65.9677 585.817 65.3476 585.817 64.6305C585.817 63.9134 585.971 63.2948 586.278 62.7747C586.583 62.2515 587.011 61.8483 587.562 61.5652C588.11 61.282 588.75 61.1404 589.482 61.1404C590.209 61.1404 590.847 61.282 591.398 61.5652C591.946 61.8483 592.374 62.2515 592.681 62.7747C592.986 63.2948 593.138 63.9134 593.138 64.6305ZM591.615 64.6213C591.615 64.295 591.523 64.0227 591.338 63.8042C591.15 63.5856 590.895 63.421 590.572 63.3102C590.249 63.1963 589.881 63.1394 589.468 63.1394C589.056 63.1394 588.688 63.1963 588.365 63.3102C588.042 63.421 587.786 63.5856 587.599 63.8042C587.411 64.0227 587.317 64.295 587.317 64.6213C587.317 64.9506 587.411 65.2276 587.599 65.4522C587.786 65.6738 588.042 65.8416 588.365 65.9554C588.688 66.0662 589.056 66.1216 589.468 66.1216C589.881 66.1216 590.249 66.0662 590.572 65.9554C590.895 65.8416 591.15 65.6738 591.338 65.4522C591.523 65.2276 591.615 64.9506 591.615 64.6213ZM583.545 57.8951H593V59.8617H583.545V57.8951ZM593.134 54.2977C593.134 54.7501 593.055 55.1533 592.898 55.5072C592.738 55.8611 592.503 56.1412 592.192 56.3474C591.878 56.5505 591.487 56.6521 591.02 56.6521C590.626 56.6521 590.295 56.5798 590.027 56.4351C589.759 56.2905 589.544 56.0935 589.381 55.8442C589.218 55.5949 589.094 55.3118 589.011 54.9948C588.928 54.6747 588.87 54.3392 588.836 53.9884C588.793 53.576 588.753 53.2436 588.716 52.9912C588.676 52.7388 588.617 52.5557 588.54 52.4419C588.464 52.328 588.35 52.271 588.199 52.271H588.171C587.879 52.271 587.653 52.3634 587.493 52.548C587.333 52.7296 587.252 52.9881 587.252 53.3236C587.252 53.6775 587.331 53.9591 587.488 54.1684C587.642 54.3777 587.836 54.5162 588.07 54.5839L587.922 56.4028C587.491 56.3105 587.119 56.1289 586.805 55.858C586.488 55.5872 586.245 55.2379 586.075 54.8101C585.903 54.3792 585.817 53.8807 585.817 53.3144C585.817 52.9204 585.863 52.5434 585.955 52.1833C586.048 51.8202 586.191 51.4985 586.385 51.2185C586.578 50.9353 586.828 50.7122 587.132 50.5491C587.434 50.386 587.796 50.3044 588.217 50.3044H593V52.1695H592.017V52.2249C592.238 52.3387 592.434 52.4911 592.603 52.6819C592.769 52.8727 592.9 53.102 592.995 53.3698C593.088 53.6375 593.134 53.9468 593.134 54.2977ZM591.777 53.7345C591.777 53.4452 591.72 53.1897 591.606 52.9681C591.489 52.7465 591.332 52.5727 591.135 52.4465C590.938 52.3203 590.715 52.2572 590.466 52.2572H589.713C589.753 52.3187 589.79 52.4034 589.824 52.5111C589.855 52.6157 589.884 52.7342 589.912 52.8666C589.936 52.9989 589.959 53.1312 589.981 53.2636C589.999 53.3959 590.016 53.516 590.032 53.6237C590.065 53.8545 590.119 54.0561 590.193 54.2284C590.267 54.4008 590.367 54.5347 590.493 54.6301C590.616 54.7255 590.77 54.7732 590.955 54.7732C591.223 54.7732 591.427 54.6762 591.569 54.4823C591.707 54.2854 591.777 54.0361 591.777 53.7345ZM593.12 47.6292C593.12 47.9339 593.012 48.1955 592.797 48.414C592.578 48.6294 592.317 48.7371 592.012 48.7371C591.71 48.7371 591.452 48.6294 591.237 48.414C591.021 48.1955 590.913 47.9339 590.913 47.6292C590.913 47.3337 591.021 47.0752 591.237 46.8536C591.452 46.632 591.71 46.5212 592.012 46.5212C592.215 46.5212 592.401 46.5735 592.571 46.6782C592.737 46.7797 592.871 46.9136 592.972 47.0798C593.071 47.246 593.12 47.4291 593.12 47.6292ZM593.138 41.7028C593.138 42.4291 592.985 43.0539 592.677 43.5771C592.366 44.0972 591.935 44.4973 591.384 44.7773C590.833 45.0543 590.199 45.1928 589.482 45.1928C588.756 45.1928 588.119 45.0528 587.571 44.7727C587.02 44.4896 586.591 44.0879 586.283 43.5678C585.972 43.0477 585.817 42.4291 585.817 41.712C585.817 41.0934 585.929 40.5517 586.154 40.087C586.378 39.6223 586.694 39.2545 587.1 38.9837C587.506 38.7128 587.983 38.5636 588.531 38.5359V40.3917C588.177 40.444 587.893 40.5825 587.677 40.8072C587.459 41.0288 587.349 41.3196 587.349 41.6797C587.349 41.9844 587.433 42.2506 587.599 42.4783C587.762 42.703 588 42.8784 588.314 43.0046C588.628 43.1308 589.008 43.1939 589.455 43.1939C589.907 43.1939 590.292 43.1323 590.609 43.0092C590.926 42.883 591.167 42.7061 591.333 42.4783C591.5 42.2506 591.583 41.9844 591.583 41.6797C591.583 41.455 591.537 41.2534 591.444 41.0749C591.352 40.8933 591.218 40.7441 591.043 40.6271C590.864 40.5071 590.65 40.4286 590.401 40.3917V38.5359C590.943 38.5666 591.42 38.7144 591.832 38.979C592.241 39.2406 592.561 39.6023 592.792 40.0639C593.023 40.5256 593.138 41.0719 593.138 41.7028ZM593.138 34.0729C593.138 34.79 592.986 35.4101 592.681 35.9333C592.374 36.4535 591.946 36.8551 591.398 37.1382C590.847 37.4214 590.209 37.5629 589.482 37.5629C588.75 37.5629 588.11 37.4214 587.562 37.1382C587.011 36.8551 586.583 36.4535 586.278 35.9333C585.971 35.4101 585.817 34.79 585.817 34.0729C585.817 33.3558 585.971 32.7372 586.278 32.2171C586.583 31.6939 587.011 31.2907 587.562 31.0075C588.11 30.7244 588.75 30.5828 589.482 30.5828C590.209 30.5828 590.847 30.7244 591.398 31.0075C591.946 31.2907 592.374 31.6939 592.681 32.2171C592.986 32.7372 593.138 33.3558 593.138 34.0729ZM591.615 34.0637C591.615 33.7374 591.523 33.4651 591.338 33.2465C591.15 33.028 590.895 32.8634 590.572 32.7526C590.249 32.6387 589.881 32.5818 589.468 32.5818C589.056 32.5818 588.688 32.6387 588.365 32.7526C588.042 32.8634 587.786 33.028 587.599 33.2465C587.411 33.4651 587.317 33.7374 587.317 34.0637C587.317 34.393 587.411 34.67 587.599 34.8946C587.786 35.1162 588.042 35.2839 588.365 35.3978C588.688 35.5086 589.056 35.564 589.468 35.564C589.881 35.564 590.249 35.5086 590.572 35.3978C590.895 35.2839 591.15 35.1162 591.338 34.8946C591.523 34.67 591.615 34.393 591.615 34.0637ZM593 29.3041H585.909V27.4298H587.16V27.3467C586.745 27.199 586.417 26.9527 586.177 26.608C585.937 26.2633 585.817 25.8509 585.817 25.3708C585.817 24.8846 585.938 24.4706 586.181 24.129C586.422 23.7874 586.748 23.5596 587.16 23.4458V23.3719C586.754 23.2272 586.429 22.9656 586.186 22.5871C585.94 22.2055 585.817 21.7546 585.817 21.2345C585.817 20.5728 586.028 20.0357 586.449 19.6233C586.868 19.2078 587.462 19.0001 588.231 19.0001H593V20.9621H588.619C588.225 20.9621 587.93 21.0667 587.733 21.276C587.536 21.4853 587.437 21.7469 587.437 22.0608C587.437 22.4178 587.551 22.6963 587.779 22.8964C588.003 23.0964 588.3 23.1965 588.67 23.1965H593V25.1031H588.577C588.23 25.1031 587.953 25.2031 587.746 25.4031C587.54 25.6001 587.437 25.8602 587.437 26.1833C587.437 26.4018 587.493 26.5988 587.603 26.7742C587.711 26.9466 587.863 27.0835 588.06 27.1851C588.254 27.2867 588.482 27.3374 588.744 27.3374H593V29.3041Z" fill="#111010"/>
<path d="M593.134 105.193C593.134 105.646 593.055 106.049 592.898 106.403C592.738 106.757 592.503 107.037 592.192 107.243C591.878 107.446 591.487 107.548 591.02 107.548C590.626 107.548 590.295 107.475 590.027 107.331C589.759 107.186 589.544 106.989 589.381 106.74C589.218 106.49 589.094 106.207 589.011 105.89C588.928 105.57 588.87 105.235 588.836 104.884C588.793 104.471 588.753 104.139 588.716 103.887C588.676 103.634 588.617 103.451 588.54 103.337C588.464 103.223 588.35 103.167 588.199 103.167H588.171C587.879 103.167 587.653 103.259 587.493 103.444C587.333 103.625 587.252 103.884 587.252 104.219C587.252 104.573 587.331 104.855 587.488 105.064C587.642 105.273 587.836 105.412 588.07 105.479L587.922 107.298C587.491 107.206 587.119 107.024 586.805 106.754C586.488 106.483 586.245 106.133 586.075 105.706C585.903 105.275 585.817 104.776 585.817 104.21C585.817 103.816 585.863 103.439 585.955 103.079C586.048 102.716 586.191 102.394 586.385 102.114C586.578 101.831 586.828 101.608 587.132 101.445C587.434 101.281 587.796 101.2 588.217 101.2H593V103.065H592.017V103.12C592.238 103.234 592.434 103.387 592.603 103.577C592.769 103.768 592.9 103.998 592.995 104.265C593.088 104.533 593.134 104.842 593.134 105.193ZM591.777 104.63C591.777 104.341 591.72 104.085 591.606 103.864C591.489 103.642 591.332 103.468 591.135 103.342C590.938 103.216 590.715 103.153 590.466 103.153H589.713C589.753 103.214 589.79 103.299 589.824 103.407C589.855 103.511 589.884 103.63 589.912 103.762C589.936 103.894 589.959 104.027 589.981 104.159C589.999 104.291 590.016 104.411 590.032 104.519C590.065 104.75 590.119 104.952 590.193 105.124C590.267 105.296 590.367 105.43 590.493 105.526C590.616 105.621 590.77 105.669 590.955 105.669C591.223 105.669 591.427 105.572 591.569 105.378C591.707 105.181 591.777 104.932 591.777 104.63ZM593.134 97.6522C593.134 98.1046 593.055 98.5078 592.898 98.8617C592.738 99.2156 592.503 99.4957 592.192 99.7019C591.878 99.905 591.487 100.007 591.02 100.007C590.626 100.007 590.295 99.9342 590.027 99.7896C589.759 99.6449 589.544 99.448 589.381 99.1987C589.218 98.9494 589.094 98.6663 589.011 98.3493C588.928 98.0292 588.87 97.6937 588.836 97.3429C588.793 96.9305 588.753 96.5981 588.716 96.3457C588.676 96.0933 588.617 95.9102 588.54 95.7963C588.464 95.6825 588.35 95.6255 588.199 95.6255H588.171C587.879 95.6255 587.653 95.7179 587.493 95.9025C587.333 96.0841 587.252 96.3426 587.252 96.6781C587.252 97.032 587.331 97.3136 587.488 97.5229C587.642 97.7322 587.836 97.8707 588.07 97.9384L587.922 99.7573C587.491 99.665 587.119 99.4834 586.805 99.2125C586.488 98.9417 586.245 98.5924 586.075 98.1646C585.903 97.7337 585.817 97.2351 585.817 96.6689C585.817 96.2749 585.863 95.8979 585.955 95.5378C586.048 95.1747 586.191 94.853 586.385 94.573C586.578 94.2898 586.828 94.0667 587.132 93.9036C587.434 93.7405 587.796 93.6589 588.217 93.6589H593V95.524H592.017V95.5794C592.238 95.6932 592.434 95.8456 592.603 96.0364C592.769 96.2272 592.9 96.4565 592.995 96.7243C593.088 96.992 593.134 97.3013 593.134 97.6522ZM591.777 97.089C591.777 96.7997 591.72 96.5442 591.606 96.3226C591.489 96.101 591.332 95.9271 591.135 95.801C590.938 95.6748 590.715 95.6117 590.466 95.6117H589.713C589.753 95.6732 589.79 95.7579 589.824 95.8656C589.855 95.9702 589.884 96.0887 589.912 96.2211C589.936 96.3534 589.959 96.4857 589.981 96.6181C589.999 96.7504 590.016 96.8704 590.032 96.9782C590.065 97.209 590.119 97.4106 590.193 97.5829C590.267 97.7553 590.367 97.8891 590.493 97.9846C590.616 98.08 590.77 98.1277 590.955 98.1277C591.223 98.1277 591.427 98.0307 591.569 97.8368C591.707 97.6399 591.777 97.3906 591.777 97.089ZM593.115 89.5202C593.115 90.0588 592.977 90.5466 592.7 90.9837C592.42 91.4176 592.009 91.7623 591.467 92.0178C590.923 92.2701 590.255 92.3963 589.464 92.3963C588.651 92.3963 587.976 92.2655 587.437 92.0039C586.895 91.7423 586.491 91.3945 586.223 90.9606C585.952 90.5236 585.817 90.045 585.817 89.5249C585.817 89.1278 585.884 88.797 586.02 88.5323C586.152 88.2646 586.318 88.0491 586.518 87.886C586.715 87.7198 586.909 87.5936 587.1 87.5075V87.4474H583.545V85.4854H593V87.4244H591.864V87.5075C592.061 87.5998 592.257 87.7306 592.451 87.8999C592.641 88.0661 592.8 88.283 592.926 88.5508C593.052 88.8155 593.115 89.1386 593.115 89.5202ZM591.55 88.897C591.55 88.58 591.464 88.3123 591.292 88.0938C591.116 87.8722 590.872 87.7029 590.558 87.5859C590.244 87.4659 589.876 87.4059 589.455 87.4059C589.033 87.4059 588.667 87.4644 588.356 87.5813C588.045 87.6983 587.805 87.8675 587.636 88.0891C587.466 88.3107 587.382 88.58 587.382 88.897C587.382 89.2202 587.469 89.4925 587.645 89.7141C587.82 89.9357 588.063 90.1035 588.374 90.2173C588.685 90.3312 589.045 90.3881 589.455 90.3881C589.867 90.3881 590.232 90.3312 590.549 90.2173C590.863 90.1004 591.109 89.9326 591.287 89.7141C591.463 89.4925 591.55 89.2202 591.55 88.897ZM593.138 80.637C593.138 81.3664 592.991 81.9942 592.695 82.5205C592.397 83.0437 591.975 83.4469 591.43 83.73C590.883 84.0132 590.235 84.1547 589.487 84.1547C588.757 84.1547 588.117 84.0132 587.566 83.73C587.016 83.4469 586.586 83.0483 586.278 82.5344C585.971 82.0173 585.817 81.411 585.817 80.7155C585.817 80.2477 585.892 79.8122 586.043 79.409C586.191 79.0028 586.414 78.6488 586.712 78.3472C587.011 78.0425 587.386 77.8055 587.839 77.6363C588.288 77.467 588.814 77.3824 589.418 77.3824H589.958V83.3699H588.739V79.2336C588.456 79.2336 588.205 79.2951 587.987 79.4182C587.768 79.5413 587.597 79.7122 587.474 79.9307C587.348 80.1461 587.285 80.3969 587.285 80.6831C587.285 80.9817 587.354 81.2464 587.493 81.4772C587.628 81.7049 587.811 81.8834 588.042 82.0127C588.27 82.142 588.524 82.2081 588.804 82.2112H589.962C590.313 82.2112 590.616 82.1466 590.872 82.0173C591.127 81.885 591.324 81.6988 591.463 81.4587C591.601 81.2187 591.67 80.934 591.67 80.6047C591.67 80.3862 591.64 80.1861 591.578 80.0045C591.517 79.8229 591.424 79.6675 591.301 79.5383C591.178 79.409 591.027 79.3105 590.849 79.2428L590.969 77.4239C591.406 77.5162 591.787 77.7055 592.114 77.9917C592.437 78.2749 592.689 78.6411 592.871 79.0905C593.049 79.5367 593.138 80.0522 593.138 80.637ZM593 76.0621H583.545V74.0954H587.1V74.0354C586.909 73.9492 586.715 73.8246 586.518 73.6615C586.318 73.4953 586.152 73.2799 586.02 73.0152C585.884 72.7474 585.817 72.415 585.817 72.018C585.817 71.501 585.952 71.0239 586.223 70.5869C586.491 70.1499 586.895 69.8006 587.437 69.539C587.976 69.2774 588.651 69.1466 589.464 69.1466C590.255 69.1466 590.923 69.2743 591.467 69.5297C592.009 69.7821 592.42 70.1268 592.7 70.5638C592.977 70.9978 593.115 71.484 593.115 72.0226C593.115 72.4043 593.052 72.729 592.926 72.9967C592.8 73.2614 592.641 73.4784 592.451 73.6476C592.257 73.8169 592.061 73.9462 591.864 74.0354V74.1231H593V76.0621ZM589.455 74.137C589.876 74.137 590.244 74.0785 590.558 73.9616C590.872 73.8446 591.116 73.6753 591.292 73.4537C591.464 73.2322 591.55 72.9629 591.55 72.6459C591.55 72.3258 591.463 72.055 591.287 71.8334C591.109 71.6118 590.863 71.444 590.549 71.3302C590.232 71.2132 589.867 71.1547 589.455 71.1547C589.045 71.1547 588.685 71.2117 588.374 71.3256C588.063 71.4394 587.82 71.6072 587.645 71.8287C587.469 72.0503 587.382 72.3227 587.382 72.6459C587.382 72.9659 587.466 73.2368 587.636 73.4584C587.805 73.6769 588.045 73.8446 588.356 73.9616C588.667 74.0785 589.033 74.137 589.455 74.137ZM593.138 64.6305C593.138 65.3476 592.986 65.9677 592.681 66.4909C592.374 67.0111 591.946 67.4127 591.398 67.6958C590.847 67.979 590.209 68.1206 589.482 68.1206C588.75 68.1206 588.11 67.979 587.562 67.6958C587.011 67.4127 586.583 67.0111 586.278 66.4909C585.971 65.9677 585.817 65.3476 585.817 64.6305C585.817 63.9134 585.971 63.2948 586.278 62.7747C586.583 62.2515 587.011 61.8483 587.562 61.5652C588.11 61.282 588.75 61.1404 589.482 61.1404C590.209 61.1404 590.847 61.282 591.398 61.5652C591.946 61.8483 592.374 62.2515 592.681 62.7747C592.986 63.2948 593.138 63.9134 593.138 64.6305ZM591.615 64.6213C591.615 64.295 591.523 64.0227 591.338 63.8042C591.15 63.5856 590.895 63.421 590.572 63.3102C590.249 63.1963 589.881 63.1394 589.468 63.1394C589.056 63.1394 588.688 63.1963 588.365 63.3102C588.042 63.421 587.786 63.5856 587.599 63.8042C587.411 64.0227 587.317 64.295 587.317 64.6213C587.317 64.9506 587.411 65.2276 587.599 65.4522C587.786 65.6738 588.042 65.8416 588.365 65.9554C588.688 66.0662 589.056 66.1216 589.468 66.1216C589.881 66.1216 590.249 66.0662 590.572 65.9554C590.895 65.8416 591.15 65.6738 591.338 65.4522C591.523 65.2276 591.615 64.9506 591.615 64.6213ZM583.545 57.8951H593V59.8617H583.545V57.8951ZM593.134 54.2977C593.134 54.7501 593.055 55.1533 592.898 55.5072C592.738 55.8611 592.503 56.1412 592.192 56.3474C591.878 56.5505 591.487 56.6521 591.02 56.6521C590.626 56.6521 590.295 56.5798 590.027 56.4351C589.759 56.2905 589.544 56.0935 589.381 55.8442C589.218 55.5949 589.094 55.3118 589.011 54.9948C588.928 54.6747 588.87 54.3392 588.836 53.9884C588.793 53.576 588.753 53.2436 588.716 52.9912C588.676 52.7388 588.617 52.5557 588.54 52.4419C588.464 52.328 588.35 52.271 588.199 52.271H588.171C587.879 52.271 587.653 52.3634 587.493 52.548C587.333 52.7296 587.252 52.9881 587.252 53.3236C587.252 53.6775 587.331 53.9591 587.488 54.1684C587.642 54.3777 587.836 54.5162 588.07 54.5839L587.922 56.4028C587.491 56.3105 587.119 56.1289 586.805 55.858C586.488 55.5872 586.245 55.2379 586.075 54.8101C585.903 54.3792 585.817 53.8807 585.817 53.3144C585.817 52.9204 585.863 52.5434 585.955 52.1833C586.048 51.8202 586.191 51.4985 586.385 51.2185C586.578 50.9353 586.828 50.7122 587.132 50.5491C587.434 50.386 587.796 50.3044 588.217 50.3044H593V52.1695H592.017V52.2249C592.238 52.3387 592.434 52.4911 592.603 52.6819C592.769 52.8727 592.9 53.102 592.995 53.3698C593.088 53.6375 593.134 53.9468 593.134 54.2977ZM591.777 53.7345C591.777 53.4452 591.72 53.1897 591.606 52.9681C591.489 52.7465 591.332 52.5727 591.135 52.4465C590.938 52.3203 590.715 52.2572 590.466 52.2572H589.713C589.753 52.3187 589.79 52.4034 589.824 52.5111C589.855 52.6157 589.884 52.7342 589.912 52.8666C589.936 52.9989 589.959 53.1312 589.981 53.2636C589.999 53.3959 590.016 53.516 590.032 53.6237C590.065 53.8545 590.119 54.0561 590.193 54.2284C590.267 54.4008 590.367 54.5347 590.493 54.6301C590.616 54.7255 590.77 54.7732 590.955 54.7732C591.223 54.7732 591.427 54.6762 591.569 54.4823C591.707 54.2854 591.777 54.0361 591.777 53.7345ZM593.12 47.6292C593.12 47.9339 593.012 48.1955 592.797 48.414C592.578 48.6294 592.317 48.7371 592.012 48.7371C591.71 48.7371 591.452 48.6294 591.237 48.414C591.021 48.1955 590.913 47.9339 590.913 47.6292C590.913 47.3337 591.021 47.0752 591.237 46.8536C591.452 46.632 591.71 46.5212 592.012 46.5212C592.215 46.5212 592.401 46.5735 592.571 46.6782C592.737 46.7797 592.871 46.9136 592.972 47.0798C593.071 47.246 593.12 47.4291 593.12 47.6292ZM593.138 41.7028C593.138 42.4291 592.985 43.0539 592.677 43.5771C592.366 44.0972 591.935 44.4973 591.384 44.7773C590.833 45.0543 590.199 45.1928 589.482 45.1928C588.756 45.1928 588.119 45.0528 587.571 44.7727C587.02 44.4896 586.591 44.0879 586.283 43.5678C585.972 43.0477 585.817 42.4291 585.817 41.712C585.817 41.0934 585.929 40.5517 586.154 40.087C586.378 39.6223 586.694 39.2545 587.1 38.9837C587.506 38.7128 587.983 38.5636 588.531 38.5359V40.3917C588.177 40.444 587.893 40.5825 587.677 40.8072C587.459 41.0288 587.349 41.3196 587.349 41.6797C587.349 41.9844 587.433 42.2506 587.599 42.4783C587.762 42.703 588 42.8784 588.314 43.0046C588.628 43.1308 589.008 43.1939 589.455 43.1939C589.907 43.1939 590.292 43.1323 590.609 43.0092C590.926 42.883 591.167 42.7061 591.333 42.4783C591.5 42.2506 591.583 41.9844 591.583 41.6797C591.583 41.455 591.537 41.2534 591.444 41.0749C591.352 40.8933 591.218 40.7441 591.043 40.6271C590.864 40.5071 590.65 40.4286 590.401 40.3917V38.5359C590.943 38.5666 591.42 38.7144 591.832 38.979C592.241 39.2406 592.561 39.6023 592.792 40.0639C593.023 40.5256 593.138 41.0719 593.138 41.7028ZM593.138 34.0729C593.138 34.79 592.986 35.4101 592.681 35.9333C592.374 36.4535 591.946 36.8551 591.398 37.1382C590.847 37.4214 590.209 37.5629 589.482 37.5629C588.75 37.5629 588.11 37.4214 587.562 37.1382C587.011 36.8551 586.583 36.4535 586.278 35.9333C585.971 35.4101 585.817 34.79 585.817 34.0729C585.817 33.3558 585.971 32.7372 586.278 32.2171C586.583 31.6939 587.011 31.2907 587.562 31.0075C588.11 30.7244 588.75 30.5828 589.482 30.5828C590.209 30.5828 590.847 30.7244 591.398 31.0075C591.946 31.2907 592.374 31.6939 592.681 32.2171C592.986 32.7372 593.138 33.3558 593.138 34.0729ZM591.615 34.0637C591.615 33.7374 591.523 33.4651 591.338 33.2465C591.15 33.028 590.895 32.8634 590.572 32.7526C590.249 32.6387 589.881 32.5818 589.468 32.5818C589.056 32.5818 588.688 32.6387 588.365 32.7526C588.042 32.8634 587.786 33.028 587.599 33.2465C587.411 33.4651 587.317 33.7374 587.317 34.0637C587.317 34.393 587.411 34.67 587.599 34.8946C587.786 35.1162 588.042 35.2839 588.365 35.3978C588.688 35.5086 589.056 35.564 589.468 35.564C589.881 35.564 590.249 35.5086 590.572 35.3978C590.895 35.2839 591.15 35.1162 591.338 34.8946C591.523 34.67 591.615 34.393 591.615 34.0637ZM593 29.3041H585.909V27.4298H587.16V27.3467C586.745 27.199 586.417 26.9527 586.177 26.608C585.937 26.2633 585.817 25.8509 585.817 25.3708C585.817 24.8846 585.938 24.4706 586.181 24.129C586.422 23.7874 586.748 23.5596 587.16 23.4458V23.3719C586.754 23.2272 586.429 22.9656 586.186 22.5871C585.94 22.2055 585.817 21.7546 585.817 21.2345C585.817 20.5728 586.028 20.0357 586.449 19.6233C586.868 19.2078 587.462 19.0001 588.231 19.0001H593V20.9621H588.619C588.225 20.9621 587.93 21.0667 587.733 21.276C587.536 21.4853 587.437 21.7469 587.437 22.0608C587.437 22.4178 587.551 22.6963 587.779 22.8964C588.003 23.0964 588.3 23.1965 588.67 23.1965H593V25.1031H588.577C588.23 25.1031 587.953 25.2031 587.746 25.4031C587.54 25.6001 587.437 25.8602 587.437 26.1833C587.437 26.4018 587.493 26.5988 587.603 26.7742C587.711 26.9466 587.863 27.0835 588.06 27.1851C588.254 27.2867 588.482 27.3374 588.744 27.3374H593V29.3041Z" fill="#F5F5F5"/>
</svg>
