<svg width="1200" height="630" viewBox="0 0 1200 630" fill="none" xmlns="http://www.w3.org/2000/svg">
<path d="M1201 1H21.5215H1V631H405.452H823.258C823.258 631 788.917 443 895.754 329C1002.59 215 1201 255 1201 255V1Z" fill="#100F0F" stroke="#100F0F"/>
<path d="M1192.13 120.193C1192.13 120.646 1192.06 121.049 1191.9 121.403C1191.74 121.757 1191.5 122.037 1191.19 122.243C1190.88 122.446 1190.49 122.548 1190.02 122.548C1189.63 122.548 1189.29 122.475 1189.03 122.331C1188.76 122.186 1188.54 121.989 1188.38 121.74C1188.22 121.49 1188.09 121.207 1188.01 120.89C1187.93 120.57 1187.87 120.235 1187.84 119.884C1187.79 119.471 1187.75 119.139 1187.72 118.887C1187.68 118.634 1187.62 118.451 1187.54 118.337C1187.46 118.223 1187.35 118.167 1187.2 118.167H1187.17C1186.88 118.167 1186.65 118.259 1186.49 118.444C1186.33 118.625 1186.25 118.884 1186.25 119.219C1186.25 119.573 1186.33 119.855 1186.49 120.064C1186.64 120.273 1186.84 120.412 1187.07 120.479L1186.92 122.298C1186.49 122.206 1186.12 122.024 1185.8 121.754C1185.49 121.483 1185.24 121.133 1185.08 120.706C1184.9 120.275 1184.82 119.776 1184.82 119.21C1184.82 118.816 1184.86 118.439 1184.96 118.079C1185.05 117.716 1185.19 117.394 1185.38 117.114C1185.58 116.831 1185.83 116.608 1186.13 116.445C1186.43 116.281 1186.8 116.2 1187.22 116.2H1192V118.065H1191.02V118.12C1191.24 118.234 1191.43 118.387 1191.6 118.577C1191.77 118.768 1191.9 118.998 1192 119.265C1192.09 119.533 1192.13 119.842 1192.13 120.193ZM1190.78 119.63C1190.78 119.341 1190.72 119.085 1190.61 118.864C1190.49 118.642 1190.33 118.468 1190.13 118.342C1189.94 118.216 1189.71 118.153 1189.47 118.153H1188.71C1188.75 118.214 1188.79 118.299 1188.82 118.407C1188.85 118.511 1188.88 118.63 1188.91 118.762C1188.94 118.894 1188.96 119.027 1188.98 119.159C1189 119.291 1189.02 119.411 1189.03 119.519C1189.07 119.75 1189.12 119.952 1189.19 120.124C1189.27 120.296 1189.37 120.43 1189.49 120.526C1189.62 120.621 1189.77 120.669 1189.95 120.669C1190.22 120.669 1190.43 120.572 1190.57 120.378C1190.71 120.181 1190.78 119.932 1190.78 119.63ZM1192.13 112.652C1192.13 113.105 1192.06 113.508 1191.9 113.862C1191.74 114.216 1191.5 114.496 1191.19 114.702C1190.88 114.905 1190.49 115.007 1190.02 115.007C1189.63 115.007 1189.29 114.934 1189.03 114.79C1188.76 114.645 1188.54 114.448 1188.38 114.199C1188.22 113.949 1188.09 113.666 1188.01 113.349C1187.93 113.029 1187.87 112.694 1187.84 112.343C1187.79 111.93 1187.75 111.598 1187.72 111.346C1187.68 111.093 1187.62 110.91 1187.54 110.796C1187.46 110.682 1187.35 110.626 1187.2 110.626H1187.17C1186.88 110.626 1186.65 110.718 1186.49 110.903C1186.33 111.084 1186.25 111.343 1186.25 111.678C1186.25 112.032 1186.33 112.314 1186.49 112.523C1186.64 112.732 1186.84 112.871 1187.07 112.938L1186.92 114.757C1186.49 114.665 1186.12 114.483 1185.8 114.213C1185.49 113.942 1185.24 113.592 1185.08 113.165C1184.9 112.734 1184.82 112.235 1184.82 111.669C1184.82 111.275 1184.86 110.898 1184.96 110.538C1185.05 110.175 1185.19 109.853 1185.38 109.573C1185.58 109.29 1185.83 109.067 1186.13 108.904C1186.43 108.74 1186.8 108.659 1187.22 108.659H1192V110.524H1191.02V110.579C1191.24 110.693 1191.43 110.846 1191.6 111.036C1191.77 111.227 1191.9 111.456 1192 111.724C1192.09 111.992 1192.13 112.301 1192.13 112.652ZM1190.78 112.089C1190.78 111.8 1190.72 111.544 1190.61 111.323C1190.49 111.101 1190.33 110.927 1190.13 110.801C1189.94 110.675 1189.71 110.612 1189.47 110.612H1188.71C1188.75 110.673 1188.79 110.758 1188.82 110.866C1188.85 110.97 1188.88 111.089 1188.91 111.221C1188.94 111.353 1188.96 111.486 1188.98 111.618C1189 111.75 1189.02 111.87 1189.03 111.978C1189.07 112.209 1189.12 112.411 1189.19 112.583C1189.27 112.755 1189.37 112.889 1189.49 112.985C1189.62 113.08 1189.77 113.128 1189.95 113.128C1190.22 113.128 1190.43 113.031 1190.57 112.837C1190.71 112.64 1190.78 112.391 1190.78 112.089ZM1192.12 104.52C1192.12 105.059 1191.98 105.547 1191.7 105.984C1191.42 106.418 1191.01 106.762 1190.47 107.018C1189.92 107.27 1189.25 107.396 1188.46 107.396C1187.65 107.396 1186.98 107.266 1186.44 107.004C1185.9 106.742 1185.49 106.395 1185.22 105.961C1184.95 105.524 1184.82 105.045 1184.82 104.525C1184.82 104.128 1184.88 103.797 1185.02 103.532C1185.15 103.265 1185.32 103.049 1185.52 102.886C1185.72 102.72 1185.91 102.594 1186.1 102.507V102.447H1182.55V100.485H1192V102.424H1190.86V102.507C1191.06 102.6 1191.26 102.731 1191.45 102.9C1191.64 103.066 1191.8 103.283 1191.93 103.551C1192.05 103.815 1192.12 104.139 1192.12 104.52ZM1190.55 103.897C1190.55 103.58 1190.46 103.312 1190.29 103.094C1190.12 102.872 1189.87 102.703 1189.56 102.586C1189.24 102.466 1188.88 102.406 1188.45 102.406C1188.03 102.406 1187.67 102.464 1187.36 102.581C1187.04 102.698 1186.8 102.868 1186.64 103.089C1186.47 103.311 1186.38 103.58 1186.38 103.897C1186.38 104.22 1186.47 104.493 1186.64 104.714C1186.82 104.936 1187.06 105.103 1187.37 105.217C1187.69 105.331 1188.05 105.388 1188.45 105.388C1188.87 105.388 1189.23 105.331 1189.55 105.217C1189.86 105.1 1190.11 104.933 1190.29 104.714C1190.46 104.493 1190.55 104.22 1190.55 103.897ZM1192.14 95.637C1192.14 96.3664 1191.99 96.9942 1191.7 97.5205C1191.4 98.0437 1190.98 98.4469 1190.43 98.73C1189.88 99.0132 1189.23 99.1547 1188.49 99.1547C1187.76 99.1547 1187.12 99.0132 1186.57 98.73C1186.02 98.4469 1185.59 98.0483 1185.28 97.5344C1184.97 97.0173 1184.82 96.411 1184.82 95.7155C1184.82 95.2477 1184.89 94.8122 1185.04 94.409C1185.19 94.0028 1185.41 93.6488 1185.71 93.3472C1186.01 93.0425 1186.39 92.8055 1186.84 92.6363C1187.29 92.467 1187.81 92.3824 1188.42 92.3824H1188.96V98.3699H1187.74V94.2336C1187.46 94.2336 1187.21 94.2951 1186.99 94.4182C1186.77 94.5413 1186.6 94.7122 1186.47 94.9307C1186.35 95.1461 1186.28 95.3969 1186.28 95.6831C1186.28 95.9817 1186.35 96.2464 1186.49 96.4772C1186.63 96.7049 1186.81 96.8834 1187.04 97.0127C1187.27 97.142 1187.52 97.2081 1187.8 97.2112H1188.96C1189.31 97.2112 1189.62 97.1466 1189.87 97.0173C1190.13 96.885 1190.32 96.6988 1190.46 96.4587C1190.6 96.2187 1190.67 95.934 1190.67 95.6047C1190.67 95.3862 1190.64 95.1861 1190.58 95.0045C1190.52 94.8229 1190.42 94.6675 1190.3 94.5383C1190.18 94.409 1190.03 94.3105 1189.85 94.2428L1189.97 92.4239C1190.41 92.5162 1190.79 92.7055 1191.11 92.9917C1191.44 93.2749 1191.69 93.6411 1191.87 94.0905C1192.05 94.5367 1192.14 95.0522 1192.14 95.637ZM1192 91.0621H1182.55V89.0954H1186.1V89.0354C1185.91 88.9492 1185.72 88.8246 1185.52 88.6615C1185.32 88.4953 1185.15 88.2799 1185.02 88.0152C1184.88 87.7474 1184.82 87.415 1184.82 87.018C1184.82 86.501 1184.95 86.0239 1185.22 85.5869C1185.49 85.1499 1185.9 84.8006 1186.44 84.539C1186.98 84.2774 1187.65 84.1466 1188.46 84.1466C1189.25 84.1466 1189.92 84.2743 1190.47 84.5297C1191.01 84.7821 1191.42 85.1268 1191.7 85.5638C1191.98 85.9978 1192.12 86.484 1192.12 87.0226C1192.12 87.4043 1192.05 87.729 1191.93 87.9967C1191.8 88.2614 1191.64 88.4784 1191.45 88.6476C1191.26 88.8169 1191.06 88.9462 1190.86 89.0354V89.1231H1192V91.0621ZM1188.45 89.137C1188.88 89.137 1189.24 89.0785 1189.56 88.9616C1189.87 88.8446 1190.12 88.6753 1190.29 88.4537C1190.46 88.2322 1190.55 87.9629 1190.55 87.6459C1190.55 87.3258 1190.46 87.055 1190.29 86.8334C1190.11 86.6118 1189.86 86.444 1189.55 86.3302C1189.23 86.2132 1188.87 86.1547 1188.45 86.1547C1188.05 86.1547 1187.69 86.2117 1187.37 86.3256C1187.06 86.4394 1186.82 86.6072 1186.64 86.8287C1186.47 87.0503 1186.38 87.3227 1186.38 87.6459C1186.38 87.9659 1186.47 88.2368 1186.64 88.4584C1186.8 88.6769 1187.04 88.8446 1187.36 88.9616C1187.67 89.0785 1188.03 89.137 1188.45 89.137ZM1192.14 79.6305C1192.14 80.3476 1191.99 80.9677 1191.68 81.4909C1191.37 82.0111 1190.95 82.4127 1190.4 82.6958C1189.85 82.979 1189.21 83.1206 1188.48 83.1206C1187.75 83.1206 1187.11 82.979 1186.56 82.6958C1186.01 82.4127 1185.58 82.0111 1185.28 81.4909C1184.97 80.9677 1184.82 80.3476 1184.82 79.6305C1184.82 78.9134 1184.97 78.2948 1185.28 77.7747C1185.58 77.2515 1186.01 76.8483 1186.56 76.5652C1187.11 76.282 1187.75 76.1404 1188.48 76.1404C1189.21 76.1404 1189.85 76.282 1190.4 76.5652C1190.95 76.8483 1191.37 77.2515 1191.68 77.7747C1191.99 78.2948 1192.14 78.9134 1192.14 79.6305ZM1190.62 79.6213C1190.62 79.295 1190.52 79.0227 1190.34 78.8042C1190.15 78.5856 1189.89 78.421 1189.57 78.3102C1189.25 78.1963 1188.88 78.1394 1188.47 78.1394C1188.06 78.1394 1187.69 78.1963 1187.37 78.3102C1187.04 78.421 1186.79 78.5856 1186.6 78.8042C1186.41 79.0227 1186.32 79.295 1186.32 79.6213C1186.32 79.9506 1186.41 80.2276 1186.6 80.4522C1186.79 80.6738 1187.04 80.8416 1187.37 80.9554C1187.69 81.0662 1188.06 81.1216 1188.47 81.1216C1188.88 81.1216 1189.25 81.0662 1189.57 80.9554C1189.89 80.8416 1190.15 80.6738 1190.34 80.4522C1190.52 80.2276 1190.62 79.9506 1190.62 79.6213ZM1182.55 72.8951H1192V74.8617H1182.55V72.8951ZM1192.13 69.2977C1192.13 69.7501 1192.06 70.1533 1191.9 70.5072C1191.74 70.8611 1191.5 71.1412 1191.19 71.3474C1190.88 71.5505 1190.49 71.6521 1190.02 71.6521C1189.63 71.6521 1189.29 71.5798 1189.03 71.4351C1188.76 71.2905 1188.54 71.0935 1188.38 70.8442C1188.22 70.5949 1188.09 70.3118 1188.01 69.9948C1187.93 69.6747 1187.87 69.3392 1187.84 68.9884C1187.79 68.576 1187.75 68.2436 1187.72 67.9912C1187.68 67.7388 1187.62 67.5557 1187.54 67.4419C1187.46 67.328 1187.35 67.271 1187.2 67.271H1187.17C1186.88 67.271 1186.65 67.3634 1186.49 67.548C1186.33 67.7296 1186.25 67.9881 1186.25 68.3236C1186.25 68.6775 1186.33 68.9591 1186.49 69.1684C1186.64 69.3777 1186.84 69.5162 1187.07 69.5839L1186.92 71.4028C1186.49 71.3105 1186.12 71.1289 1185.8 70.858C1185.49 70.5872 1185.24 70.2379 1185.08 69.8101C1184.9 69.3792 1184.82 68.8807 1184.82 68.3144C1184.82 67.9204 1184.86 67.5434 1184.96 67.1833C1185.05 66.8202 1185.19 66.4985 1185.38 66.2185C1185.58 65.9353 1185.83 65.7122 1186.13 65.5491C1186.43 65.386 1186.8 65.3044 1187.22 65.3044H1192V67.1695H1191.02V67.2249C1191.24 67.3387 1191.43 67.4911 1191.6 67.6819C1191.77 67.8727 1191.9 68.102 1192 68.3698C1192.09 68.6375 1192.13 68.9468 1192.13 69.2977ZM1190.78 68.7345C1190.78 68.4452 1190.72 68.1897 1190.61 67.9681C1190.49 67.7465 1190.33 67.5727 1190.13 67.4465C1189.94 67.3203 1189.71 67.2572 1189.47 67.2572H1188.71C1188.75 67.3187 1188.79 67.4034 1188.82 67.5111C1188.85 67.6157 1188.88 67.7342 1188.91 67.8666C1188.94 67.9989 1188.96 68.1312 1188.98 68.2636C1189 68.3959 1189.02 68.516 1189.03 68.6237C1189.07 68.8545 1189.12 69.0561 1189.19 69.2284C1189.27 69.4008 1189.37 69.5347 1189.49 69.6301C1189.62 69.7255 1189.77 69.7732 1189.95 69.7732C1190.22 69.7732 1190.43 69.6762 1190.57 69.4823C1190.71 69.2854 1190.78 69.0361 1190.78 68.7345ZM1192.12 62.6292C1192.12 62.9339 1192.01 63.1955 1191.8 63.414C1191.58 63.6294 1191.32 63.7371 1191.01 63.7371C1190.71 63.7371 1190.45 63.6294 1190.24 63.414C1190.02 63.1955 1189.91 62.9339 1189.91 62.6292C1189.91 62.3337 1190.02 62.0752 1190.24 61.8536C1190.45 61.632 1190.71 61.5212 1191.01 61.5212C1191.22 61.5212 1191.4 61.5735 1191.57 61.6782C1191.74 61.7797 1191.87 61.9136 1191.97 62.0798C1192.07 62.246 1192.12 62.4291 1192.12 62.6292ZM1192.14 56.7028C1192.14 57.4291 1191.98 58.0539 1191.68 58.5771C1191.37 59.0972 1190.94 59.4973 1190.38 59.7773C1189.83 60.0543 1189.2 60.1928 1188.48 60.1928C1187.76 60.1928 1187.12 60.0528 1186.57 59.7727C1186.02 59.4896 1185.59 59.0879 1185.28 58.5678C1184.97 58.0477 1184.82 57.4291 1184.82 56.712C1184.82 56.0934 1184.93 55.5517 1185.15 55.087C1185.38 54.6223 1185.69 54.2545 1186.1 53.9837C1186.51 53.7128 1186.98 53.5636 1187.53 53.5359V55.3917C1187.18 55.444 1186.89 55.5825 1186.68 55.8072C1186.46 56.0288 1186.35 56.3196 1186.35 56.6797C1186.35 56.9844 1186.43 57.2506 1186.6 57.4783C1186.76 57.703 1187 57.8784 1187.31 58.0046C1187.63 58.1308 1188.01 58.1939 1188.45 58.1939C1188.91 58.1939 1189.29 58.1323 1189.61 58.0092C1189.93 57.883 1190.17 57.7061 1190.33 57.4783C1190.5 57.2506 1190.58 56.9844 1190.58 56.6797C1190.58 56.455 1190.54 56.2534 1190.44 56.0749C1190.35 55.8933 1190.22 55.7441 1190.04 55.6271C1189.86 55.5071 1189.65 55.4286 1189.4 55.3917V53.5359C1189.94 53.5666 1190.42 53.7144 1190.83 53.979C1191.24 54.2406 1191.56 54.6023 1191.79 55.0639C1192.02 55.5256 1192.14 56.0719 1192.14 56.7028ZM1192.14 49.0729C1192.14 49.79 1191.99 50.4101 1191.68 50.9333C1191.37 51.4535 1190.95 51.8551 1190.4 52.1382C1189.85 52.4214 1189.21 52.5629 1188.48 52.5629C1187.75 52.5629 1187.11 52.4214 1186.56 52.1382C1186.01 51.8551 1185.58 51.4535 1185.28 50.9333C1184.97 50.4101 1184.82 49.79 1184.82 49.0729C1184.82 48.3558 1184.97 47.7372 1185.28 47.2171C1185.58 46.6939 1186.01 46.2907 1186.56 46.0075C1187.11 45.7244 1187.75 45.5828 1188.48 45.5828C1189.21 45.5828 1189.85 45.7244 1190.4 46.0075C1190.95 46.2907 1191.37 46.6939 1191.68 47.2171C1191.99 47.7372 1192.14 48.3558 1192.14 49.0729ZM1190.62 49.0637C1190.62 48.7374 1190.52 48.4651 1190.34 48.2465C1190.15 48.028 1189.89 47.8634 1189.57 47.7526C1189.25 47.6387 1188.88 47.5818 1188.47 47.5818C1188.06 47.5818 1187.69 47.6387 1187.37 47.7526C1187.04 47.8634 1186.79 48.028 1186.6 48.2465C1186.41 48.4651 1186.32 48.7374 1186.32 49.0637C1186.32 49.393 1186.41 49.67 1186.6 49.8946C1186.79 50.1162 1187.04 50.2839 1187.37 50.3978C1187.69 50.5086 1188.06 50.564 1188.47 50.564C1188.88 50.564 1189.25 50.5086 1189.57 50.3978C1189.89 50.2839 1190.15 50.1162 1190.34 49.8946C1190.52 49.67 1190.62 49.393 1190.62 49.0637ZM1192 44.3041H1184.91V42.4298H1186.16V42.3467C1185.74 42.199 1185.42 41.9527 1185.18 41.608C1184.94 41.2633 1184.82 40.8509 1184.82 40.3708C1184.82 39.8846 1184.94 39.4706 1185.18 39.129C1185.42 38.7874 1185.75 38.5596 1186.16 38.4458V38.3719C1185.75 38.2272 1185.43 37.9656 1185.19 37.5871C1184.94 37.2055 1184.82 36.7546 1184.82 36.2345C1184.82 35.5728 1185.03 35.0357 1185.45 34.6233C1185.87 34.2078 1186.46 34.0001 1187.23 34.0001H1192V35.9621H1187.62C1187.23 35.9621 1186.93 36.0667 1186.73 36.276C1186.54 36.4853 1186.44 36.7469 1186.44 37.0608C1186.44 37.4178 1186.55 37.6963 1186.78 37.8964C1187 38.0964 1187.3 38.1965 1187.67 38.1965H1192V40.1031H1187.58C1187.23 40.1031 1186.95 40.2031 1186.75 40.4031C1186.54 40.6001 1186.44 40.8602 1186.44 41.1833C1186.44 41.4018 1186.49 41.5988 1186.6 41.7742C1186.71 41.9466 1186.86 42.0835 1187.06 42.1851C1187.25 42.2867 1187.48 42.3374 1187.74 42.3374H1192V44.3041Z" fill="#100F0F"/>
<path d="M1192.13 120.193C1192.13 120.646 1192.06 121.049 1191.9 121.403C1191.74 121.757 1191.5 122.037 1191.19 122.243C1190.88 122.446 1190.49 122.548 1190.02 122.548C1189.63 122.548 1189.29 122.475 1189.03 122.331C1188.76 122.186 1188.54 121.989 1188.38 121.74C1188.22 121.49 1188.09 121.207 1188.01 120.89C1187.93 120.57 1187.87 120.235 1187.84 119.884C1187.79 119.471 1187.75 119.139 1187.72 118.887C1187.68 118.634 1187.62 118.451 1187.54 118.337C1187.46 118.223 1187.35 118.167 1187.2 118.167H1187.17C1186.88 118.167 1186.65 118.259 1186.49 118.444C1186.33 118.625 1186.25 118.884 1186.25 119.219C1186.25 119.573 1186.33 119.855 1186.49 120.064C1186.64 120.273 1186.84 120.412 1187.07 120.479L1186.92 122.298C1186.49 122.206 1186.12 122.024 1185.8 121.754C1185.49 121.483 1185.24 121.133 1185.08 120.706C1184.9 120.275 1184.82 119.776 1184.82 119.21C1184.82 118.816 1184.86 118.439 1184.96 118.079C1185.05 117.716 1185.19 117.394 1185.38 117.114C1185.58 116.831 1185.83 116.608 1186.13 116.445C1186.43 116.281 1186.8 116.2 1187.22 116.2H1192V118.065H1191.02V118.12C1191.24 118.234 1191.43 118.387 1191.6 118.577C1191.77 118.768 1191.9 118.998 1192 119.265C1192.09 119.533 1192.13 119.842 1192.13 120.193ZM1190.78 119.63C1190.78 119.341 1190.72 119.085 1190.61 118.864C1190.49 118.642 1190.33 118.468 1190.13 118.342C1189.94 118.216 1189.71 118.153 1189.47 118.153H1188.71C1188.75 118.214 1188.79 118.299 1188.82 118.407C1188.85 118.511 1188.88 118.63 1188.91 118.762C1188.94 118.894 1188.96 119.027 1188.98 119.159C1189 119.291 1189.02 119.411 1189.03 119.519C1189.07 119.75 1189.12 119.952 1189.19 120.124C1189.27 120.296 1189.37 120.43 1189.49 120.526C1189.62 120.621 1189.77 120.669 1189.95 120.669C1190.22 120.669 1190.43 120.572 1190.57 120.378C1190.71 120.181 1190.78 119.932 1190.78 119.63ZM1192.13 112.652C1192.13 113.105 1192.06 113.508 1191.9 113.862C1191.74 114.216 1191.5 114.496 1191.19 114.702C1190.88 114.905 1190.49 115.007 1190.02 115.007C1189.63 115.007 1189.29 114.934 1189.03 114.79C1188.76 114.645 1188.54 114.448 1188.38 114.199C1188.22 113.949 1188.09 113.666 1188.01 113.349C1187.93 113.029 1187.87 112.694 1187.84 112.343C1187.79 111.93 1187.75 111.598 1187.72 111.346C1187.68 111.093 1187.62 110.91 1187.54 110.796C1187.46 110.682 1187.35 110.626 1187.2 110.626H1187.17C1186.88 110.626 1186.65 110.718 1186.49 110.903C1186.33 111.084 1186.25 111.343 1186.25 111.678C1186.25 112.032 1186.33 112.314 1186.49 112.523C1186.64 112.732 1186.84 112.871 1187.07 112.938L1186.92 114.757C1186.49 114.665 1186.12 114.483 1185.8 114.213C1185.49 113.942 1185.24 113.592 1185.08 113.165C1184.9 112.734 1184.82 112.235 1184.82 111.669C1184.82 111.275 1184.86 110.898 1184.96 110.538C1185.05 110.175 1185.19 109.853 1185.38 109.573C1185.58 109.29 1185.83 109.067 1186.13 108.904C1186.43 108.74 1186.8 108.659 1187.22 108.659H1192V110.524H1191.02V110.579C1191.24 110.693 1191.43 110.846 1191.6 111.036C1191.77 111.227 1191.9 111.456 1192 111.724C1192.09 111.992 1192.13 112.301 1192.13 112.652ZM1190.78 112.089C1190.78 111.8 1190.72 111.544 1190.61 111.323C1190.49 111.101 1190.33 110.927 1190.13 110.801C1189.94 110.675 1189.71 110.612 1189.47 110.612H1188.71C1188.75 110.673 1188.79 110.758 1188.82 110.866C1188.85 110.97 1188.88 111.089 1188.91 111.221C1188.94 111.353 1188.96 111.486 1188.98 111.618C1189 111.75 1189.02 111.87 1189.03 111.978C1189.07 112.209 1189.12 112.411 1189.19 112.583C1189.27 112.755 1189.37 112.889 1189.49 112.985C1189.62 113.08 1189.77 113.128 1189.95 113.128C1190.22 113.128 1190.43 113.031 1190.57 112.837C1190.71 112.64 1190.78 112.391 1190.78 112.089ZM1192.12 104.52C1192.12 105.059 1191.98 105.547 1191.7 105.984C1191.42 106.418 1191.01 106.762 1190.47 107.018C1189.92 107.27 1189.25 107.396 1188.46 107.396C1187.65 107.396 1186.98 107.266 1186.44 107.004C1185.9 106.742 1185.49 106.395 1185.22 105.961C1184.95 105.524 1184.82 105.045 1184.82 104.525C1184.82 104.128 1184.88 103.797 1185.02 103.532C1185.15 103.265 1185.32 103.049 1185.52 102.886C1185.72 102.72 1185.91 102.594 1186.1 102.507V102.447H1182.55V100.485H1192V102.424H1190.86V102.507C1191.06 102.6 1191.26 102.731 1191.45 102.9C1191.64 103.066 1191.8 103.283 1191.93 103.551C1192.05 103.815 1192.12 104.139 1192.12 104.52ZM1190.55 103.897C1190.55 103.58 1190.46 103.312 1190.29 103.094C1190.12 102.872 1189.87 102.703 1189.56 102.586C1189.24 102.466 1188.88 102.406 1188.45 102.406C1188.03 102.406 1187.67 102.464 1187.36 102.581C1187.04 102.698 1186.8 102.868 1186.64 103.089C1186.47 103.311 1186.38 103.58 1186.38 103.897C1186.38 104.22 1186.47 104.493 1186.64 104.714C1186.82 104.936 1187.06 105.103 1187.37 105.217C1187.69 105.331 1188.05 105.388 1188.45 105.388C1188.87 105.388 1189.23 105.331 1189.55 105.217C1189.86 105.1 1190.11 104.933 1190.29 104.714C1190.46 104.493 1190.55 104.22 1190.55 103.897ZM1192.14 95.637C1192.14 96.3664 1191.99 96.9942 1191.7 97.5205C1191.4 98.0437 1190.98 98.4469 1190.43 98.73C1189.88 99.0132 1189.23 99.1547 1188.49 99.1547C1187.76 99.1547 1187.12 99.0132 1186.57 98.73C1186.02 98.4469 1185.59 98.0483 1185.28 97.5344C1184.97 97.0173 1184.82 96.411 1184.82 95.7155C1184.82 95.2477 1184.89 94.8122 1185.04 94.409C1185.19 94.0028 1185.41 93.6488 1185.71 93.3472C1186.01 93.0425 1186.39 92.8055 1186.84 92.6363C1187.29 92.467 1187.81 92.3824 1188.42 92.3824H1188.96V98.3699H1187.74V94.2336C1187.46 94.2336 1187.21 94.2951 1186.99 94.4182C1186.77 94.5413 1186.6 94.7122 1186.47 94.9307C1186.35 95.1461 1186.28 95.3969 1186.28 95.6831C1186.28 95.9817 1186.35 96.2464 1186.49 96.4772C1186.63 96.7049 1186.81 96.8834 1187.04 97.0127C1187.27 97.142 1187.52 97.2081 1187.8 97.2112H1188.96C1189.31 97.2112 1189.62 97.1466 1189.87 97.0173C1190.13 96.885 1190.32 96.6988 1190.46 96.4587C1190.6 96.2187 1190.67 95.934 1190.67 95.6047C1190.67 95.3862 1190.64 95.1861 1190.58 95.0045C1190.52 94.8229 1190.42 94.6675 1190.3 94.5383C1190.18 94.409 1190.03 94.3105 1189.85 94.2428L1189.97 92.4239C1190.41 92.5162 1190.79 92.7055 1191.11 92.9917C1191.44 93.2749 1191.69 93.6411 1191.87 94.0905C1192.05 94.5367 1192.14 95.0522 1192.14 95.637ZM1192 91.0621H1182.55V89.0954H1186.1V89.0354C1185.91 88.9492 1185.72 88.8246 1185.52 88.6615C1185.32 88.4953 1185.15 88.2799 1185.02 88.0152C1184.88 87.7474 1184.82 87.415 1184.82 87.018C1184.82 86.501 1184.95 86.0239 1185.22 85.5869C1185.49 85.1499 1185.9 84.8006 1186.44 84.539C1186.98 84.2774 1187.65 84.1466 1188.46 84.1466C1189.25 84.1466 1189.92 84.2743 1190.47 84.5297C1191.01 84.7821 1191.42 85.1268 1191.7 85.5638C1191.98 85.9978 1192.12 86.484 1192.12 87.0226C1192.12 87.4043 1192.05 87.729 1191.93 87.9967C1191.8 88.2614 1191.64 88.4784 1191.45 88.6476C1191.26 88.8169 1191.06 88.9462 1190.86 89.0354V89.1231H1192V91.0621ZM1188.45 89.137C1188.88 89.137 1189.24 89.0785 1189.56 88.9616C1189.87 88.8446 1190.12 88.6753 1190.29 88.4537C1190.46 88.2322 1190.55 87.9629 1190.55 87.6459C1190.55 87.3258 1190.46 87.055 1190.29 86.8334C1190.11 86.6118 1189.86 86.444 1189.55 86.3302C1189.23 86.2132 1188.87 86.1547 1188.45 86.1547C1188.05 86.1547 1187.69 86.2117 1187.37 86.3256C1187.06 86.4394 1186.82 86.6072 1186.64 86.8287C1186.47 87.0503 1186.38 87.3227 1186.38 87.6459C1186.38 87.9659 1186.47 88.2368 1186.64 88.4584C1186.8 88.6769 1187.04 88.8446 1187.36 88.9616C1187.67 89.0785 1188.03 89.137 1188.45 89.137ZM1192.14 79.6305C1192.14 80.3476 1191.99 80.9677 1191.68 81.4909C1191.37 82.0111 1190.95 82.4127 1190.4 82.6958C1189.85 82.979 1189.21 83.1206 1188.48 83.1206C1187.75 83.1206 1187.11 82.979 1186.56 82.6958C1186.01 82.4127 1185.58 82.0111 1185.28 81.4909C1184.97 80.9677 1184.82 80.3476 1184.82 79.6305C1184.82 78.9134 1184.97 78.2948 1185.28 77.7747C1185.58 77.2515 1186.01 76.8483 1186.56 76.5652C1187.11 76.282 1187.75 76.1404 1188.48 76.1404C1189.21 76.1404 1189.85 76.282 1190.4 76.5652C1190.95 76.8483 1191.37 77.2515 1191.68 77.7747C1191.99 78.2948 1192.14 78.9134 1192.14 79.6305ZM1190.62 79.6213C1190.62 79.295 1190.52 79.0227 1190.34 78.8042C1190.15 78.5856 1189.89 78.421 1189.57 78.3102C1189.25 78.1963 1188.88 78.1394 1188.47 78.1394C1188.06 78.1394 1187.69 78.1963 1187.37 78.3102C1187.04 78.421 1186.79 78.5856 1186.6 78.8042C1186.41 79.0227 1186.32 79.295 1186.32 79.6213C1186.32 79.9506 1186.41 80.2276 1186.6 80.4522C1186.79 80.6738 1187.04 80.8416 1187.37 80.9554C1187.69 81.0662 1188.06 81.1216 1188.47 81.1216C1188.88 81.1216 1189.25 81.0662 1189.57 80.9554C1189.89 80.8416 1190.15 80.6738 1190.34 80.4522C1190.52 80.2276 1190.62 79.9506 1190.62 79.6213ZM1182.55 72.8951H1192V74.8617H1182.55V72.8951ZM1192.13 69.2977C1192.13 69.7501 1192.06 70.1533 1191.9 70.5072C1191.74 70.8611 1191.5 71.1412 1191.19 71.3474C1190.88 71.5505 1190.49 71.6521 1190.02 71.6521C1189.63 71.6521 1189.29 71.5798 1189.03 71.4351C1188.76 71.2905 1188.54 71.0935 1188.38 70.8442C1188.22 70.5949 1188.09 70.3118 1188.01 69.9948C1187.93 69.6747 1187.87 69.3392 1187.84 68.9884C1187.79 68.576 1187.75 68.2436 1187.72 67.9912C1187.68 67.7388 1187.62 67.5557 1187.54 67.4419C1187.46 67.328 1187.35 67.271 1187.2 67.271H1187.17C1186.88 67.271 1186.65 67.3634 1186.49 67.548C1186.33 67.7296 1186.25 67.9881 1186.25 68.3236C1186.25 68.6775 1186.33 68.9591 1186.49 69.1684C1186.64 69.3777 1186.84 69.5162 1187.07 69.5839L1186.92 71.4028C1186.49 71.3105 1186.12 71.1289 1185.8 70.858C1185.49 70.5872 1185.24 70.2379 1185.08 69.8101C1184.9 69.3792 1184.82 68.8807 1184.82 68.3144C1184.82 67.9204 1184.86 67.5434 1184.96 67.1833C1185.05 66.8202 1185.19 66.4985 1185.38 66.2185C1185.58 65.9353 1185.83 65.7122 1186.13 65.5491C1186.43 65.386 1186.8 65.3044 1187.22 65.3044H1192V67.1695H1191.02V67.2249C1191.24 67.3387 1191.43 67.4911 1191.6 67.6819C1191.77 67.8727 1191.9 68.102 1192 68.3698C1192.09 68.6375 1192.13 68.9468 1192.13 69.2977ZM1190.78 68.7345C1190.78 68.4452 1190.72 68.1897 1190.61 67.9681C1190.49 67.7465 1190.33 67.5727 1190.13 67.4465C1189.94 67.3203 1189.71 67.2572 1189.47 67.2572H1188.71C1188.75 67.3187 1188.79 67.4034 1188.82 67.5111C1188.85 67.6157 1188.88 67.7342 1188.91 67.8666C1188.94 67.9989 1188.96 68.1312 1188.98 68.2636C1189 68.3959 1189.02 68.516 1189.03 68.6237C1189.07 68.8545 1189.12 69.0561 1189.19 69.2284C1189.27 69.4008 1189.37 69.5347 1189.49 69.6301C1189.62 69.7255 1189.77 69.7732 1189.95 69.7732C1190.22 69.7732 1190.43 69.6762 1190.57 69.4823C1190.71 69.2854 1190.78 69.0361 1190.78 68.7345ZM1192.12 62.6292C1192.12 62.9339 1192.01 63.1955 1191.8 63.414C1191.58 63.6294 1191.32 63.7371 1191.01 63.7371C1190.71 63.7371 1190.45 63.6294 1190.24 63.414C1190.02 63.1955 1189.91 62.9339 1189.91 62.6292C1189.91 62.3337 1190.02 62.0752 1190.24 61.8536C1190.45 61.632 1190.71 61.5212 1191.01 61.5212C1191.22 61.5212 1191.4 61.5735 1191.57 61.6782C1191.74 61.7797 1191.87 61.9136 1191.97 62.0798C1192.07 62.246 1192.12 62.4291 1192.12 62.6292ZM1192.14 56.7028C1192.14 57.4291 1191.98 58.0539 1191.68 58.5771C1191.37 59.0972 1190.94 59.4973 1190.38 59.7773C1189.83 60.0543 1189.2 60.1928 1188.48 60.1928C1187.76 60.1928 1187.12 60.0528 1186.57 59.7727C1186.02 59.4896 1185.59 59.0879 1185.28 58.5678C1184.97 58.0477 1184.82 57.4291 1184.82 56.712C1184.82 56.0934 1184.93 55.5517 1185.15 55.087C1185.38 54.6223 1185.69 54.2545 1186.1 53.9837C1186.51 53.7128 1186.98 53.5636 1187.53 53.5359V55.3917C1187.18 55.444 1186.89 55.5825 1186.68 55.8072C1186.46 56.0288 1186.35 56.3196 1186.35 56.6797C1186.35 56.9844 1186.43 57.2506 1186.6 57.4783C1186.76 57.703 1187 57.8784 1187.31 58.0046C1187.63 58.1308 1188.01 58.1939 1188.45 58.1939C1188.91 58.1939 1189.29 58.1323 1189.61 58.0092C1189.93 57.883 1190.17 57.7061 1190.33 57.4783C1190.5 57.2506 1190.58 56.9844 1190.58 56.6797C1190.58 56.455 1190.54 56.2534 1190.44 56.0749C1190.35 55.8933 1190.22 55.7441 1190.04 55.6271C1189.86 55.5071 1189.65 55.4286 1189.4 55.3917V53.5359C1189.94 53.5666 1190.42 53.7144 1190.83 53.979C1191.24 54.2406 1191.56 54.6023 1191.79 55.0639C1192.02 55.5256 1192.14 56.0719 1192.14 56.7028ZM1192.14 49.0729C1192.14 49.79 1191.99 50.4101 1191.68 50.9333C1191.37 51.4535 1190.95 51.8551 1190.4 52.1382C1189.85 52.4214 1189.21 52.5629 1188.48 52.5629C1187.75 52.5629 1187.11 52.4214 1186.56 52.1382C1186.01 51.8551 1185.58 51.4535 1185.28 50.9333C1184.97 50.4101 1184.82 49.79 1184.82 49.0729C1184.82 48.3558 1184.97 47.7372 1185.28 47.2171C1185.58 46.6939 1186.01 46.2907 1186.56 46.0075C1187.11 45.7244 1187.75 45.5828 1188.48 45.5828C1189.21 45.5828 1189.85 45.7244 1190.4 46.0075C1190.95 46.2907 1191.37 46.6939 1191.68 47.2171C1191.99 47.7372 1192.14 48.3558 1192.14 49.0729ZM1190.62 49.0637C1190.62 48.7374 1190.52 48.4651 1190.34 48.2465C1190.15 48.028 1189.89 47.8634 1189.57 47.7526C1189.25 47.6387 1188.88 47.5818 1188.47 47.5818C1188.06 47.5818 1187.69 47.6387 1187.37 47.7526C1187.04 47.8634 1186.79 48.028 1186.6 48.2465C1186.41 48.4651 1186.32 48.7374 1186.32 49.0637C1186.32 49.393 1186.41 49.67 1186.6 49.8946C1186.79 50.1162 1187.04 50.2839 1187.37 50.3978C1187.69 50.5086 1188.06 50.564 1188.47 50.564C1188.88 50.564 1189.25 50.5086 1189.57 50.3978C1189.89 50.2839 1190.15 50.1162 1190.34 49.8946C1190.52 49.67 1190.62 49.393 1190.62 49.0637ZM1192 44.3041H1184.91V42.4298H1186.16V42.3467C1185.74 42.199 1185.42 41.9527 1185.18 41.608C1184.94 41.2633 1184.82 40.8509 1184.82 40.3708C1184.82 39.8846 1184.94 39.4706 1185.18 39.129C1185.42 38.7874 1185.75 38.5596 1186.16 38.4458V38.3719C1185.75 38.2272 1185.43 37.9656 1185.19 37.5871C1184.94 37.2055 1184.82 36.7546 1184.82 36.2345C1184.82 35.5728 1185.03 35.0357 1185.45 34.6233C1185.87 34.2078 1186.46 34.0001 1187.23 34.0001H1192V35.9621H1187.62C1187.23 35.9621 1186.93 36.0667 1186.73 36.276C1186.54 36.4853 1186.44 36.7469 1186.44 37.0608C1186.44 37.4178 1186.55 37.6963 1186.78 37.8964C1187 38.0964 1187.3 38.1965 1187.67 38.1965H1192V40.1031H1187.58C1187.23 40.1031 1186.95 40.2031 1186.75 40.4031C1186.54 40.6001 1186.44 40.8602 1186.44 41.1833C1186.44 41.4018 1186.49 41.5988 1186.6 41.7742C1186.71 41.9466 1186.86 42.0835 1187.06 42.1851C1187.25 42.2867 1187.48 42.3374 1187.74 42.3374H1192V44.3041Z" fill="#F5F5F5"/>
</svg>
