<svg width="969" height="955" viewBox="0 0 969 955" fill="none" xmlns="http://www.w3.org/2000/svg">
<path fill-rule="evenodd" clip-rule="evenodd" d="M247.893 0H256.761H740.953H750.272L753.775 15.2851L961.286 921.305L969 955H948.465H865.46H855.61L852.387 938.545L783.778 587.692H685.739L601.52 940.063L597.948 955H588.779H505.774H484.807H484.193H464.272H381.267H371.417L368.194 938.545L299.585 587.692H201.546L117.327 940.063L113.755 955H104.586H21.5811H0L9.01149 920.277L244.191 14.2613L247.893 0ZM213.252 538.718H290.009L255.468 362.097L213.252 538.718ZM269.834 285.834L322.508 555.193L391.117 906.026H443.736L255.966 86.1998L43.1623 906.026H95.4163L179.638 553.665L244.019 284.306L258.053 225.595L269.834 285.834ZM479.218 930.582L295.371 127.891L430.834 719.335L479.218 930.582L493.204 920.277L539.008 743.822L701.111 119.326L493.204 920.277L479.218 930.582ZM300.623 48.9744H696.081L561.11 372.205V367.308H410.095L300.623 48.9744ZM426.936 416.282L479.218 568.318L542.706 416.282H426.936ZM740.159 86.1998L527.355 906.026H579.609L663.831 553.665L728.212 284.306L742.246 225.595L754.027 285.834L806.701 555.193L875.31 906.026H927.929L740.159 86.1998ZM739.661 362.097L697.445 538.718H774.202L739.661 362.097Z" fill="#E85D04"/>
</svg>
