<svg xmlns="http://www.w3.org/2000/svg" width="32" height="32" fill="none" viewBox="0 0 64 64"><g clip-path="url(#a)"><path fill="#BFBEBE" d="M39.568 47.4H24.251c.357 0 .645 3.51.645 7.836 0 4.328-.287 7.839-.645 7.839h15.317c-.356 0-.645-3.511-.645-7.84.002-4.324.289-7.835.645-7.835Z"/><path fill="#AEAEAE" d="M29.615 47.4h-5.363c.357 0 .645 3.51.645 7.836 0 4.328-.287 7.839-.645 7.839h5.363c.357 0 .645-3.511.645-7.84 0-4.324-.288-7.835-.645-7.835Z"/><path fill="#D1D2D2" d="M63.784 47.31c0 4.047-3.05 7.326-6.806 7.326H6.848c-3.76 0-6.809-3.279-6.809-7.326V10.19c0-4.04 3.05-7.32 6.81-7.32h50.13c3.755 0 6.805 3.277 6.805 7.32v37.12Z"/><path fill="#C6C5C5" d="M12.93 47.31V10.19c0-4.04 3.05-7.32 6.808-7.32H6.844c-3.76 0-6.809 3.277-6.809 7.32v37.12c0 4.047 3.05 7.326 6.81 7.326h12.893c-3.759 0-6.808-3.28-6.808-7.327"/><path fill="#243438" d="M63.784 36.94c0 4.04-3.05 7.32-6.806 7.32H6.848c-3.76 0-6.809-3.276-6.809-7.32V10.164c0-4.047 3.05-7.325 6.81-7.325h50.13c3.755 0 6.805 3.278 6.805 7.325V36.94Z"/><path fill="#243438" d="M.036 35.05h63.75v11.367H.035V35.05Z"/><path fill="#58C5E8" d="M58.75 6.244H5.069c-.443 0-.812.245-.812.54v34.891c0 .296.369.54.812.54h53.68c.242 0 .425-.05.558-.14l.02-.02s.016-.013.02-.024a.413.413 0 0 0 .223-.356V6.791c-.004-.295-.377-.54-.82-.54"/><path fill="#D1D2D2" d="M43.721 62.727c0 .702-.338 1.273-.753 1.273h-22.11c-.419 0-.757-.57-.757-1.273s.338-1.273.757-1.273h22.11c.415-.003.753.57.753 1.273Z"/><path fill="#C6C5C5" d="M27.937 62.727c0-.703.338-1.273.753-1.273h-8.125c-.416 0-.753.57-.753 1.273 0 .702.338 1.273.753 1.273h8.125c-.415 0-.753-.57-.753-1.273Z"/><path fill="#243438" d="M34.33 48.615c-.098-.094-.241-.121-.436-.065l-1.123.287c-.35.095-.527.326-.527.698l-.004 1.2c0 .175.039.304.117.378a.335.335 0 0 0 .249.093c.06 0 .116-.013.188-.027l1.122-.286c.35-.094.528-.326.532-.703v-1.197c-.003-.177-.042-.304-.118-.378Zm-.596 1.367c0 .133-.062.215-.19.25l-.397.104a.442.442 0 0 1-.066.008.138.138 0 0 1-.09-.031c-.026-.025-.043-.072-.038-.14v-.427c0-.133.062-.215.187-.25l.403-.103c.069-.016.12-.008.15.023.03.027.044.072.044.136v.43h-.003Zm-2.154-.452c0-.372-.175-.604-.528-.698l-1.122-.287c-.194-.056-.338-.026-.431.065-.082.074-.121.2-.121.377l.004 1.195c.004.377.179.61.528.703l1.126.287c.066.02.128.027.182.027a.33.33 0 0 0 .249-.094c.078-.073.117-.201.117-.377l-.004-1.198Zm-.746.778c-.02.02-.05.03-.09.03 0 0-.042-.003-.065-.007l-.4-.104c-.124-.035-.19-.117-.19-.25v-.431c0-.062.016-.108.042-.136.03-.031.082-.04.155-.023l.4.104c.124.034.19.116.19.249v.43c0 .063 0 .11-.042.138Zm1.535 2.3c.02 0 .039-.003.066-.012l.4-.103c.124-.03.19-.115.19-.252v-.426a.235.235 0 0 0-.04-.138c-.034-.034-.09-.038-.154-.021l-.404.103c-.124.03-.187.116-.187.252l-.004.429c0 .062.016.104.043.13.02.027.05.039.09.039Zm-.913 0a.21.21 0 0 1-.07-.012l-.4-.103c-.124-.03-.187-.115-.187-.252l-.004-.426c0-.063.016-.105.043-.138.03-.034.085-.038.15-.021l.409.103c.12.03.187.116.187.252v.429c0 .062-.016.104-.04.13a.114.114 0 0 1-.088.039Z"/></g><defs><clipPath id="a"><path fill="#fff" d="M0 0h64v64H0z"/></clipPath></defs></svg>
