<svg xmlns="http://www.w3.org/2000/svg" width="32" height="32" fill="none" viewBox="0 0 64 64"><path fill="#37474F" d="M10.666 54.667V9.333C10.666 6.4 13.066 4 16 4h32c2.933 0 5.333 2.4 5.333 5.333v45.334C53.333 57.6 50.933 60 48 60H16c-2.934 0-5.334-2.4-5.334-5.333Z"/><path fill="#BBDEFB" d="M48.762 10.159H12.19c-.914 0-1.524.53-1.524 1.323v41.035c0 .795.61 1.324 1.524 1.324h36.572c.914 0 1.524-.53 1.524-1.324V11.483c0-.794-.61-1.323-1.524-1.323Z"/><path fill="#78909C" d="M28 54.666h8v2.667h-8v-2.666Z"/></svg>