<svg xmlns="http://www.w3.org/2000/svg" width="32" height="32" fill="none" style="--i:0" viewBox="0 0 64 64"><path fill="#006CA2" d="M44.23 3.165C42.11 2.215 35.925 1.61 32 1.61c-3.92 0-10.115.605-12.23 1.555-2.075.93-2.91 2.77-2.91 4.495v48.675c0 1.73.835 3.565 2.91 4.495 2.115.95 8.31 1.555 12.23 1.555 3.925 0 10.11-.605 12.23-1.555 2.075-.93 2.91-2.77 2.91-4.495V7.665c0-1.73-.835-3.565-2.91-4.5Z"/><path fill="#fff" d="M34.785 5.375H29.22a.52.52 0 1 1 0-1.04h5.565a.52.52 0 1 1 0 1.04ZM41.945 6.24a.995.995 0 1 0 0-1.99.995.995 0 0 0 0 1.99Z"/><path fill="url(#a)" d="M22 9h24.785v41.025H22V9Z"/><path fill="#fff" d="M24.185 54.465v.35l-.765-.555.765-.56v.35h.44c.86 0 1.415.255 1.415.995 0 .745-.555 1-1.415 1h-.99v-.415h.99c.73 0 1-.16 1-.585 0-.42-.265-.58-1-.58h-.44Zm9.27 1.44H30.59V54.46l1.435-.605 1.435.605v1.445h-.005Zm-2.45-.42h2.035v-.755l-1.015-.43-1.02.43v.755Zm9.27.42h-2.4v-1.52h2.4v1.52Zm-1.98-.42h1.57V54.8h-1.57v.685Z"/><path fill="#fff" d="M40.955 55.05h-.415v-.9h-1.775v-.415h2.19v1.315Z"/><defs><linearGradient id="a" x1="34.395" x2="34.395" y1="50.029" y2="9.002" gradientUnits="userSpaceOnUse"><stop stop-color="#fff"/><stop offset="1" stop-color="#00A0D6"/></linearGradient></defs></svg>