<svg xmlns="http://www.w3.org/2000/svg" width="32" height="32" fill="none" viewBox="0 0 64 64"><g filter="url(#a)"><path fill="#B7D5E5" d="M53 12.395H11.075c-.96 0-1.74.78-1.74 1.74V42.93c0 .96.78 1.74 1.74 1.74H53c.96 0 1.74-.78 1.74-1.74V14.135c0-.96-.775-1.74-1.74-1.74Z"/><path fill="url(#b)" d="M52.375 41.6H11.7l.48-26.135h39.715l.48 26.135Z"/><path fill="#2F7889" d="M60.545 61.91H3.795c-.215 0-.415-.015-.6-.045-1.44-.22-2.105-2.09-1.25-3.37l.195-.295h59.795l.2.3c.93 1.39.06 3.38-1.52 3.405-.02.005-.045.005-.07.005Z"/><path fill="#EEE" d="M53.42 45.205H10.3c-.635 0-1.27.385-1.625.995l-7 12.74C1.38 59.38 1.67 60 2.17 60H61.9c.5 0 .79-.62.495-1.06L55.04 46.125c-.35-.54-.985-.92-1.62-.92Z"/><path fill="#B7D5E5" d="M43.18 57.76H20.9l1.425-3.99H41.86l1.32 3.99Z"/><path fill="#69A1BA" d="m36.345 47.42-.135-1.1h-1.72l.065 1.1h1.79Zm-2.775 0-.07-1.1h-1.725v1.1h1.795Zm13.235 0-.405-1.1h-1.63l.34 1.1h1.695Zm-2.625 0-.34-1.1h-1.66l.27 1.1h1.73Zm-2.59 0-.27-1.1h-1.685l.205 1.1h1.75Zm9.465 0-.475-1.1h-3.355l.41 1.1h3.42Zm-12.25 0-.205-1.1h-1.705l.14 1.1h1.77Zm-21.925 0 .34-1.1h-1.63l-.405 1.1h1.695Zm8.375 0 .135-1.1h-1.705l-.2 1.1h1.77Zm-5.58 0 .27-1.1h-1.66l-.335 1.1h1.725Zm-5.59 0 .405-1.1H12.9l-.475 1.1h1.66Zm8.38 0 .205-1.1h-1.685l-.27 1.1h1.75Zm5.575 0 .07-1.1h-1.72l-.135 1.1h1.785Zm2.785 0v-1.1H29.1l-.07 1.1h1.795Zm11.065 4.445H22.18l-.375 1.1h20.54l-.455-1.1Zm9.185 1.1-.605-1.1h3.27l.475 1.1h-3.14Zm-7.7 0-.415-1.1h3.145l.48 1.1h-3.21Zm4.32 0-.48-1.1h2.155l.55 1.1h-2.225Zm-34.86 0 .605-1.1h-3.27l-.475 1.1h3.14Zm7.7 0 .415-1.1h-3.145l-.48 1.1h3.21Zm-4.325 0 .485-1.1H14.54l-.555 1.1h2.225Zm-1.355-3.71.41-1.095H11.93l-.475 1.095h3.4Zm34.12 0-.405-1.095h3.33l.475 1.095h-3.4Zm-.85 0-.48-1.095H45.72l.41 1.095h1.995Zm-5.01 0-.325-1.095h1.925l.39 1.095h-1.99Zm-3.02 0-.235-1.095h1.925l.3 1.095h-1.99Zm-3.02 0-.14-1.095h1.92l.215 1.095h-1.995Zm-3.015 0-.055-1.095h1.925l.12 1.095h-1.99Zm-3.02 0 .035-1.095H33l.03 1.095h-1.99Zm-3.02 0 .125-1.095h1.925l-.055 1.095H28.02Zm-3.015 0 .21-1.095h1.925l-.145 1.095h-1.99Zm-3.02 0 .3-1.095h1.925l-.235 1.095h-1.99Zm-3.02 0 .39-1.095h1.925l-.32 1.095h-1.995Zm-3.015 0 .475-1.095h1.925l-.41 1.095h-1.99Zm-1.1 1.855.405-1.1H10.88l-.475 1.1h4.445Zm33.085 0-.385-1.1h-2.085l.32 1.1h2.15Zm-5.47 0-.24-1.1h2.08l.31 1.1h-2.15Zm-3.325 0-.16-1.1h2.085l.225 1.1h-2.15Zm-3.32 0-.085-1.1h2.085l.15 1.1h-2.15Zm-3.32 0-.005-1.1h2.08l.075 1.1H32.5Zm-3.32 0 .07-1.1h2.085l-.005 1.1h-2.15Zm-3.325 0 .15-1.1h2.085l-.085 1.1h-2.15Zm-3.32 0 .23-1.1h2.08l-.16 1.1h-2.15Zm-3.32 0 .305-1.1h2.085l-.24 1.1h-2.15Zm-3.325 0 .385-1.1h2.085l-.315 1.1H15.89Zm32.845 0-.41-1.1H52.7l.475 1.1h-4.44Z" opacity=".57"/><path fill="#B7D5E5" d="m62.365 58.94-7.17-12.74c-.355-.535-.99-.92-1.625-.92 0 0 .61.55.795.815L60.66 57.89a.763.763 0 0 1-.67 1.13H3.98a.764.764 0 0 1-.675-1.12L9.28 46.31c.175-.3.94-.995.94-.995h-.225c-.635 0-1.27.385-1.625.995L1.64 58.94c-.295.44-.005 1.06.495 1.06h59.73c.505 0 .795-.62.5-1.06Z"/><path stroke="#EEE" stroke-linecap="round" stroke-miterlimit="10" stroke-width="2.936" d="M12.985 14.01h6.605"/><path fill="#75A7BC" d="M54.685 15.055c0-.52-.505-.56-.505.055v27.9c0 .67-.545 1.215-1.215 1.215H11.04c-.67 0-1.215-.545-1.215-1.215v-27.9c0-.615-.505-.575-.505-.055L8.845 43.01c0 1.21.62 2.195 2.195 2.195h41.925c1.365 0 2.195-.985 2.195-2.195l-.475-27.955Z"/></g><defs><radialGradient id="b" cx="0" cy="0" r="1" gradientTransform="matrix(37.7325 0 0 40.9133 24.204 1.966)" gradientUnits="userSpaceOnUse"><stop stop-color="#2F7889"/><stop offset="1" stop-color="#424242"/></radialGradient><filter id="a" width="72" height="72" x="-4" y="-4" color-interpolation-filters="sRGB" filterUnits="userSpaceOnUse"><feFlood flood-opacity="0" result="BackgroundImageFix"/><feGaussianBlur in="BackgroundImageFix" stdDeviation="2"/><feComposite in2="SourceAlpha" operator="in" result="effect1_backgroundBlur_145_1563"/><feBlend in="SourceGraphic" in2="effect1_backgroundBlur_145_1563" result="shape"/></filter></defs></svg>